<svg width="65" height="65" viewBox="0 0 65 65" fill="none" xmlns="http://www.w3.org/2000/svg">
<path d="M27.7111 1.23771C27.3689 1.062 26.9491 1.19691 26.7734 1.53905C26.5977 1.88119 26.7326 2.301 27.0747 2.47672C29.0482 3.49027 30.961 5.23433 32.2501 7.04069C32.7367 7.72263 34.2912 10.977 35.006 10.8183C35.5453 10.6986 36.0993 10.6627 36.6351 10.524C41.5947 9.23952 46.832 10.3529 51.4773 12.673C54.5255 14.1956 55.466 14.4565 57.7691 16.7572C59.8176 18.8036 59.6309 21.5466 58.2868 24.1774C56.9379 26.8175 54.5271 29.0946 52.6104 29.9455C51.6472 30.3732 50.6918 30.8182 49.735 31.2597C50.6699 32.3493 51.7443 33.3414 52.626 34.4738C53.7972 35.9781 54.0343 37.8962 54.4408 39.7029C57.3074 40.389 60.1332 41.4293 61.8397 44.0365C62.3475 44.8123 62.6823 45.8447 62.9104 46.974C63.4985 49.8854 63.4476 52.6497 62.6082 55.5148C61.903 57.9222 60.339 60.5789 60.339 63.1429C60.339 63.5276 60.6508 63.8394 61.0354 63.8394C61.42 63.8394 61.7318 63.5276 61.7318 63.1429C61.7318 60.7392 63.2832 58.1652 63.9449 55.9064C64.847 52.827 64.9078 49.8276 64.2757 46.6982C64.0332 45.498 63.6543 44.2655 63.0051 43.2737C61.3205 40.6999 58.5281 39.2565 55.6124 38.5514C55.2644 36.9138 54.978 35.2273 53.725 33.6181C53.2071 32.9529 52.5966 32.3565 52.0213 31.7408C52.4111 31.5626 52.8534 31.3616 53.1756 31.2186C55.4269 30.2191 58.056 27.6906 59.5271 24.8111C61.0031 21.9224 61.4165 18.432 58.7535 15.7718C56.2626 13.2835 55.1073 12.9292 52.0997 11.427C47.2607 9.01006 41.6708 7.78098 36.2859 9.17561C36.0092 9.24726 35.4433 9.32959 35.4433 9.32959C35.0044 8.46383 34.3726 7.75294 33.8531 6.94004C33.7001 6.70168 33.5484 6.46224 33.3838 6.2316C31.9822 4.26757 29.9063 2.36513 27.7111 1.23771Z" fill="#FFAAA8"/>
<path d="M29.4003 12.7301C29.7758 12.6472 30.013 12.2755 29.9301 11.8999C29.8471 11.5243 29.4754 11.2871 29.0998 11.3701C25.772 12.1052 21.6383 13.7946 18.2733 15.3887C12.283 18.2264 7.38165 23.1935 3.35216 28.389C2.27602 29.7765 1.29193 31.2904 0.735027 32.8938C0.608838 33.2572 0.801084 33.654 1.16442 33.7802C1.52776 33.9064 1.9246 33.7142 2.05079 33.3508C2.53528 31.9558 3.41443 30.5814 4.45279 29.2426C8.34768 24.2206 13.0784 19.3909 18.8696 16.6474C22.2075 15.0662 26.2281 13.4309 29.4003 12.7301Z" fill="#FFAAA8"/>
<path d="M29.5557 35.5059C31.6092 34.8214 34.1178 35.1649 35.2777 35.4612C35.2601 35.667 35.2119 35.9393 35.1134 36.2183C34.9832 36.5871 34.7725 36.9475 34.4502 37.1893C33.5368 37.8743 31.7201 39.0072 29.4592 39.2333C28.5693 39.3223 27.3999 39.1553 26.2838 38.9013C25.411 38.7027 24.5853 38.4543 23.9756 38.2459C25.2284 37.4772 27.5924 36.1603 29.5557 35.5059Z" fill="white"/>
<path fill-rule="evenodd" clip-rule="evenodd" d="M34.4799 12.0268C32.9488 9.6482 28.83 4.29261 28.2788 4.6609C27.7276 5.02919 29.4272 10.7991 30.3459 13.638C26.2883 14.7889 17.5302 17.6432 14.9579 19.8529C14.5518 20.2017 14.0249 20.624 13.4151 21.1126C9.19569 24.4938 1.00595 31.0564 1.40729 38.4977C1.86663 47.0144 8.98644 54.1501 14.9579 54.8406C20.9293 55.5312 29.6568 53.4595 35.169 47.9351C39.5786 43.5157 41.4466 38.421 41.8294 36.426C42.595 37.6537 44.3558 40.2931 45.2745 41.0297C46.1932 41.7663 47.0353 42.4108 47.3415 42.641C47.1884 44.1755 47.1578 47.705 48.2602 49.5464C49.6383 51.8482 52.624 54.1501 55.1504 55.7613C57.1715 57.0504 58.7486 59.9813 59.2845 61.2857C60.8922 58.2933 63.7401 51.4339 62.2702 47.9351C60.8003 44.4364 55.5332 41.2599 53.0833 40.109C52.8537 38.958 52.2106 36.2879 51.4756 34.8148C50.7407 33.3416 49.6383 31.7457 49.1789 31.1319C50.9397 30.518 54.7829 28.6459 56.0691 26.0678C57.6768 22.8453 58.8251 19.8529 56.9877 17.7813C55.1504 15.7097 50.3273 13.6381 43.6668 12.0268C38.3384 10.7377 35.9345 11.4897 34.4799 12.0268ZM35.5818 35.0625C34.4782 34.7471 31.7012 34.3013 29.4089 35.0654C27.1527 35.8175 24.4096 37.4085 23.3211 38.1083L22.9319 38.3585L23.3651 38.5209C23.993 38.7564 25.0477 39.0962 26.1808 39.354C27.3088 39.6107 28.5382 39.792 29.5054 39.6953C31.8873 39.4571 33.785 38.2686 34.7287 37.5607C35.1492 37.2453 35.4028 36.7932 35.5512 36.3728C35.6997 35.952 35.7502 35.5427 35.7502 35.2857V35.1106L35.5818 35.0625Z" fill="white"/>
<path fill-rule="evenodd" clip-rule="evenodd" d="M29.2093 7.22024C28.564 7.67539 28.7034 8.49399 29.8526 10.9971C30.6386 12.7089 30.8682 13.3892 30.8048 13.8189C30.703 14.5112 31.5592 17.1779 33.2766 21.5168C34.6804 25.0637 36.0281 27.8411 38.3166 31.9035L39.9126 34.737L39.5206 35.1029C39.305 35.3041 38.7606 36.1484 38.3109 36.9791C37.8611 37.8098 36.5247 39.9665 35.3408 41.7716C32.3611 46.3152 28.7829 49.7835 23.5362 51.356C19.0796 52.6922 13.9827 51.8036 9.93483 49.644C7.58354 48.3896 7.03137 47.9574 4.96863 45.7567C3.4681 44.1559 2.32155 42.0757 2.32155 42.0757C2.32155 42.0757 2.14393 43.8751 3.87521 47.5968C7.3573 55.0822 18.7496 56.0165 25.4673 53.8002C34.2422 50.9055 38.4569 46.5683 42.0523 37.9976L41.8758 36.2313C41.8758 36.2313 46.0449 41.2373 46.7359 41.955C48.6095 43.9004 48.4934 43.6647 48.4934 45.5232C48.4934 47.5128 48.8771 48.8096 50.076 50.8723C51.1874 52.7842 53.4774 55.0262 56.121 56.7899L57.3956 57.6403L57.361 58.4369C57.3333 59.0816 57.4051 59.2976 57.7383 59.5693C58.4795 60.1737 59.0885 59.9397 59.7446 58.7984C59.9846 58.3807 60.2332 57.759 60.2968 57.4169C60.3838 56.9497 60.5516 56.7286 60.9716 56.5283C62.1987 55.9432 62.7799 54.1468 62.6643 51.2961C62.587 49.3872 62.183 48.2075 61.4761 47.8264C61.0146 47.5778 60.5816 47.7763 60.5816 48.2368C60.5816 48.522 60.44 48.4005 60.008 47.7433C59.3221 46.6999 58.6078 46.1267 58.1932 46.287C57.87 46.4119 57.8636 46.3208 58.3695 48.845C58.8172 51.0777 58.7069 51.2999 57.7994 49.9938C56.515 48.1455 55.2778 46.7535 54.9192 46.7535C54.4327 46.7535 54.4918 47.1035 55.3046 49.0346C55.7022 49.9794 56.142 51.0322 56.2817 51.3743L56.5358 51.9964L55.8162 51.1966C54.4143 49.6389 53.2083 48.0769 52.8411 47.3432C52.384 46.4302 51.4052 43.7546 51.4052 43.4185C51.4052 43.2835 51.8333 42.7788 52.3567 42.2971C53.377 41.3579 53.7905 40.5549 53.9751 39.1539C54.1614 37.7391 53.4746 36.9126 52.4631 37.3346C51.945 37.5507 51.6812 38.0435 51.5045 39.1249C51.4473 39.4745 51.1715 40.0763 51.1715 40.0763C50.7465 40.4702 49.7609 39.249 49.4659 38.9636L50.4265 37.9569C51.6171 36.7088 52.08 35.6286 51.7585 34.8471C51.3637 33.8869 50.2855 33.8841 49.731 34.8416C49.5356 35.1791 48.9524 35.8859 48.435 36.4124L47.4944 37.3692C47.2825 37.1688 46.6405 36.4291 46.6405 36.4291C46.6405 36.4291 49.2875 34.6841 49.2875 33.1773C49.2875 32.5291 49.0204 32.1802 48.5239 32.1802C48.3318 32.1802 47.7012 32.7011 47.073 33.3788C46.4619 34.0381 45.9254 34.5379 45.8808 34.4896C45.836 34.4412 45.0392 33.2421 44.1099 31.8248C43.1808 30.4074 41.7913 28.3281 41.0222 27.204C40.2533 26.0799 39.4467 24.8003 39.23 24.3604C39.0131 23.9206 38.1204 22.3385 37.246 20.8447C36.3431 19.3022 34.9794 16.576 34.09 14.5355C31.807 9.29836 31.0829 7.84263 30.524 7.36758C29.9387 6.86995 29.7379 6.84738 29.2093 7.22024ZM33.6825 10.9549C33.293 11.3473 33.3285 11.5444 33.9788 12.5987C35.695 15.3804 46.4338 30.641 47.1018 31.2472C47.7187 31.807 48.3116 31.7601 48.786 31.1139C49.0013 30.8207 49.2828 30.5807 49.4116 30.5807C49.9696 30.5807 52.7435 29.2935 53.7487 28.568C55.3 27.4485 57.3303 25.2766 57.7522 24.2852C58.2861 23.031 58.6406 21.487 58.6386 20.4249C58.1932 16.9465 54.9192 16.9465 54.9192 16.9465C54.9192 16.9465 56.2771 18.3992 56.121 19.9193C55.7277 23.7441 53.2667 26.478 49.7181 27.9103L48.0593 28.5799L45.6293 25.1326C44.2929 23.2367 43.176 21.6174 43.1478 21.5341C43.1194 21.4509 43.437 21.2058 43.8537 20.9895C45.4223 20.1752 46.0747 19.1105 45.7442 17.9048C45.5368 17.1484 44.9764 16.6232 44.0104 16.2801C43.0751 15.9477 41.1422 15.9379 40.2436 16.2609L39.5822 16.4985L38.2771 14.698C36.3071 11.9802 34.9564 10.6757 34.1122 10.6757C34.0284 10.6757 33.8351 10.8014 33.6825 10.9549ZM25.9053 19.9193C24.6268 20.1514 23.5445 20.5694 22.8584 21.0965C20.3552 23.0195 21.7359 25.7772 25.1994 25.7728C28.7281 25.7683 30.694 25.026 31.0859 23.5504C31.4419 22.21 30.8336 20.7798 29.6421 20.1557C29.0205 19.8301 27.0749 19.7069 25.9053 19.9193ZM16.6407 26.0184C15.2651 26.4051 14.1327 27.0783 12.9066 28.238C11.0042 30.0372 10.4771 31.7125 11.4477 32.8741C12.3053 33.9006 13.614 33.9349 15.4491 32.9793C17.7713 31.77 19.3168 30.0204 19.7193 28.1454C19.8596 27.4919 19.4808 26.5224 18.9565 26.1926C18.4128 25.8506 17.4854 25.7808 16.6407 26.0184ZM32.6111 32.1013C31.7089 32.4119 22.0192 33.2601 25.5668 36.0699C26.3002 36.6509 26.6175 36.6699 27.5327 36.1879C28.5388 35.6581 31.4627 34.9033 33.2766 34.8471C36.3099 34.7532 35.6661 35.9035 35.6661 35.9035C35.6661 35.9035 36.3806 33.0888 35.1193 32.5444C34.3954 32.2318 32.9662 31.9794 32.6111 32.1013ZM9.67013 37.4824C8.81178 37.8935 8.2762 38.4571 7.91391 39.3304C7.56132 40.1801 7.57613 40.9336 7.96807 42.0757C8.67536 44.1369 9.72678 44.9919 11.6104 45.0378C12.6733 45.0636 12.7721 45.0305 13.3721 44.4458C14.654 43.1968 14.9091 40.4747 13.8981 38.8353C13.0001 37.3788 11.1337 36.7815 9.67013 37.4824Z" fill="black"/>
<path fill-rule="evenodd" clip-rule="evenodd" d="M26.194 2.75909C25.7724 3.18025 25.6804 3.5351 25.7578 4.44034C25.7958 4.88678 27.12 8.23903 28.3791 11.0769C28.7673 11.9521 29.0286 12.7287 28.9598 12.8027C28.8908 12.8766 27.2941 13.458 25.4115 14.0945C23.529 14.7308 21.7506 15.3746 21.4597 15.525C21.1689 15.6753 19.9275 16.1948 18.7013 16.6796C14.4275 18.3686 13.554 18.9816 8.38169 23.9205C5.29555 26.8675 4.04493 28.4025 2.42472 31.2325C0.111532 35.2732 -0.566945 39.2139 0.477042 42.5455C0.885189 43.8476 3.05508 47.8603 4.05147 49.1552C4.98312 50.366 6.6587 51.7866 8.29164 52.7502C8.99577 53.1655 10.0007 53.8032 10.5247 54.1673C11.905 55.1261 13.0919 55.5068 15.6339 55.8058C22.3201 56.5925 26.6406 55.6371 31.2652 52.349C35.004 49.6906 38.1941 46.6765 39.6434 44.4329C40.3584 43.3261 41.1299 41.796 42.0962 39.5684L42.3152 39.0638L42.9624 40.0378C43.9001 41.4493 44.6647 42.2693 45.6197 42.8876L46.4611 43.4325L46.5333 45.4658C46.654 48.858 47.4763 51.0656 49.2414 52.7355C49.8031 53.267 51.4967 54.5738 53.0049 55.6394C54.5131 56.705 56.076 57.9036 56.4781 58.3028C57.2265 59.0461 58.6663 61.7194 58.6663 62.3658C58.6663 63.1749 59.681 63.4339 60.1663 62.7486C60.3211 62.5297 60.6176 61.7938 60.8252 61.1131C61.0325 60.4324 61.5479 59.1897 61.9702 58.3514C63.843 54.6344 64.1316 50.0054 62.7184 46.3498C61.5035 43.2072 58.665 40.666 55.4234 39.8189L54.3355 39.5346L54.284 38.7431C54.1846 37.2107 53.6001 35.9154 51.855 33.3611L50.708 31.6821L52.7521 30.7001C55.5311 29.3651 56.6878 28.2127 58.0485 25.4241C59.5802 22.2847 59.7184 20.2944 58.5679 17.9388C57.9098 16.591 56.573 15.4803 53.9624 14.1125C49.9761 12.0237 48.0875 11.3971 43.1724 10.5318C40.2862 10.0237 38.6463 10.0317 36.0465 10.5661C35.3309 10.7132 34.7257 10.8089 34.7014 10.7785C34.6772 10.7481 33.5602 9.21164 32.2189 7.36401C30.8777 5.51639 29.5325 3.73931 29.2296 3.41504C28.1385 2.24689 26.9612 1.99246 26.194 2.75909ZM31.6622 10.4944C33.5961 13.147 34.5942 14.1861 35.5177 14.5079C36.1415 14.7252 36.2963 14.4863 36.1246 13.5713C35.9857 12.831 36.0428 12.8054 38.4043 12.5476C40.0557 12.3674 40.3957 12.3885 42.8635 12.8234C47.4506 13.6318 48.5898 13.9941 52.1532 15.778C55.759 17.5832 56.505 18.2671 56.9038 20.1333C57.1722 21.3885 56.8967 22.6227 55.9081 24.5964C54.8413 26.7262 53.7105 27.7616 51.1998 28.9075L49.3217 29.7648L48.3769 29.0675C47.4939 28.4158 46.4245 27.7851 46.2025 27.7851C45.715 27.7851 47.4428 31.3787 48.3815 32.3174C48.7573 32.6933 49.4038 33.6772 49.8181 34.5038C50.2323 35.3303 50.6891 36.0749 50.8331 36.1582C51.5462 36.5706 52.2235 39.2694 51.7867 39.9583C51.6717 40.1395 52.3204 40.5449 54.474 41.6379C58.4285 43.645 59.8709 45.0398 60.7792 47.7345C61.2526 49.1386 61.2381 50.2337 60.7119 52.8715C60.2783 55.045 59.8088 56.1565 59.0249 56.8654C58.6394 57.214 58.639 57.214 58.3029 56.7768C58.1178 56.5361 57.9646 56.2591 57.9625 56.1611C57.9581 55.9573 56.053 54.6576 55.1279 54.2274C54.0445 53.7233 50.7298 51.1547 50.1746 50.3888C49.4685 49.4146 48.9655 47.7337 48.8452 45.9447C48.7915 45.1465 48.6551 43.7972 48.542 42.9463C48.3571 41.5552 48.2987 41.3992 47.9631 41.3992C47.4545 41.3992 46.0032 40.4563 45.7365 39.9524C45.617 39.7272 45.2625 39.2245 44.9483 38.8355C44.6343 38.4466 43.7221 36.9932 42.9214 35.606C41.1274 32.4981 40.5167 31.9413 39.7059 32.6747C39.2135 33.1201 39.3149 33.8881 40.0415 35.216L40.7007 36.4207L40.1917 37.8933C38.4303 42.9878 36.3432 45.6696 31.0897 49.5882C28.2969 51.6713 26.8393 52.4539 24.4328 53.1625C22.4128 53.7573 20.4952 53.8766 17.1605 53.6153C13.9588 53.3642 13.0557 53.1238 11.6886 52.1589C11.1082 51.7491 9.9168 50.9415 9.04106 50.364C6.39774 48.6212 5.65841 47.7586 3.75549 44.1968C2.43799 41.7307 2.13458 40.3753 2.4042 38.1587C2.63702 36.2453 3.0825 34.8539 4.02688 33.0893C5.52165 30.2967 6.66241 28.8306 9.48141 26.0795C14.4491 21.2313 15.6873 20.3144 18.9624 19.0582C19.8303 18.7252 21.1776 18.172 21.956 17.8288C24.0671 16.8981 29.8921 14.9799 29.9629 15.1921C29.9963 15.2924 30.4264 16.0494 30.9188 16.8748C31.9297 18.5695 32.444 18.9498 33.1235 18.5047C33.7102 18.1207 33.6624 17.5019 32.9273 15.9693C32.5882 15.2619 31.9557 13.7863 31.5219 12.6899C31.0879 11.5936 30.45 10.0531 30.1039 9.2668C29.0861 6.95329 29.073 6.94286 31.6622 10.4944ZM32.2971 32.3535C32.0762 32.5322 31.9504 32.767 32.0173 32.8754C32.0843 32.9836 32.6572 33.3271 33.2904 33.6387C33.9237 33.9502 34.4771 34.2623 34.5203 34.3321C34.5634 34.4019 33.9007 34.4193 33.0474 34.3706C31.6486 34.2909 29.7212 34.4534 28.0741 34.7898C27.5602 34.8949 27.4861 34.8703 27.5802 34.6251C27.7286 34.2387 27.0779 33.7965 26.3612 33.7965C24.7095 33.7965 22.6982 35.6192 22.3132 37.4647C22.0245 38.8497 23.0893 40.1542 24.8203 40.5353C26.3004 40.8612 30.0096 40.8138 31.4011 40.451C33.9058 39.7981 35.7458 38.3189 36.777 36.129C37.591 34.4003 37.2522 33.2697 35.6695 32.4332C34.6737 31.9068 32.9008 31.8649 32.2971 32.3535ZM33.8331 36.5217C32.7078 37.9962 29.5234 38.7977 26.337 38.4082C24.9358 38.2369 24.5255 38.1292 24.7129 37.9819C24.908 37.8286 28.825 36.5984 29.9173 36.3475C31.037 36.0901 34.0628 35.7503 34.2321 35.8629C34.2701 35.888 34.0905 36.1845 33.8331 36.5217Z" fill="#323239"/>
</svg>
