<svg width="61" height="61" viewBox="0 0 61 61" fill="none" xmlns="http://www.w3.org/2000/svg">
<path d="M36.0136 3.84792C32.7966 2.86492 29.0107 2.04092 25.4197 1.81992C23.7417 1.71692 17.0567 1.37392 16.1867 3.39592C15.6967 4.53692 16.0266 7.80392 14.9026 8.29892C14.4007 8.51892 12.8207 7.94892 11.0897 7.41492C8.92365 6.74592 6.49465 6.07492 5.23665 5.78292C4.45365 6.24292 3.97665 6.42892 3.19165 6.88192C3.03756 6.9708 2.85474 6.99566 2.68251 6.95116C2.51028 6.90665 2.36239 6.79633 2.27065 6.64392C2.22613 6.5688 2.19701 6.48556 2.18498 6.39907C2.17295 6.31258 2.17827 6.22455 2.2006 6.14013C2.22294 6.05571 2.26186 5.97658 2.31509 5.90736C2.36832 5.83813 2.4348 5.78019 2.51065 5.73692C3.25665 5.30692 4.25165 4.43492 5.07465 4.43492C5.28965 4.43492 5.61065 4.49792 5.92765 4.56992C8.69565 5.19992 11.4026 6.12292 14.1046 6.97692C14.2806 5.65592 14.1997 2.92592 15.4607 2.19992C18.1576 0.649921 21.7957 0.269921 25.5037 0.496921C29.2297 0.725921 33.1247 1.57692 36.4137 2.58192C46.0336 5.52392 52.4086 10.4389 55.2096 15.9589C56.0146 17.5459 54.6106 20.3159 54.0776 21.9129C55.4486 22.6629 56.8606 23.5909 58.3736 24.0169C58.8876 24.1619 59.1186 24.5739 59.2036 24.9249C59.2836 25.2559 59.2617 25.6199 59.2187 25.9259C58.3197 32.3779 51.4547 39.6839 44.5136 39.6839C44.4259 39.6846 44.3389 39.668 44.2576 39.635C44.1763 39.602 44.1023 39.5534 44.0398 39.4918C43.9773 39.4302 43.9276 39.357 43.8934 39.2762C43.8592 39.1954 43.8413 39.1086 43.8406 39.0209C43.8406 38.6549 44.1416 38.3579 44.5136 38.3579C50.7916 38.3579 57.0777 31.5449 57.8857 25.7459C57.9133 25.5857 57.9181 25.4224 57.8997 25.2609C56.1697 24.7109 54.5476 23.7009 52.9736 22.8239C52.6776 22.6589 52.5096 22.3369 52.6256 22.0059C53.1996 20.3599 53.9547 18.5029 54.0056 16.7449C51.2426 11.8349 44.5136 6.44692 36.0136 3.84792ZM36.4376 40.3469C36.8097 40.3469 37.1106 40.6439 37.1106 41.0099C37.1106 41.6529 36.8937 42.5919 36.5556 43.4299C35.2216 46.7389 31.7757 45.8499 29.3307 47.5619C28.7378 47.9835 28.1527 48.4159 27.5757 48.8589C29.3367 49.8289 31.1697 51.0099 32.4277 52.6129C33.7477 54.2939 33.6157 57.1599 33.0407 59.1439C32.8837 59.6859 32.0057 59.8669 31.5587 60.0679C31.3969 60.1415 31.2128 60.1486 31.0459 60.0876C30.879 60.0266 30.7428 59.9024 30.6667 59.7419C30.6298 59.6625 30.6091 59.5766 30.6059 59.4891C30.6026 59.4017 30.6168 59.3144 30.6476 59.2325C30.6784 59.1506 30.7252 59.0756 30.7853 59.012C30.8454 58.9484 30.9176 58.8974 30.9977 58.8619L31.8177 58.4919C32.1527 56.8959 32.4427 54.8009 31.3627 53.4249C30.0227 51.7169 27.9547 50.5019 26.0427 49.5599C25.9431 49.5099 25.8578 49.4356 25.7944 49.3439C25.7311 49.2523 25.6918 49.1462 25.6801 49.0354C25.6685 48.9246 25.6849 48.8126 25.7278 48.7098C25.7707 48.607 25.8387 48.5166 25.9257 48.4469L25.9277 48.4449L25.9577 48.4219C26.235 48.2041 26.509 47.9821 26.7797 47.7559C27.6137 47.0659 28.4827 46.3459 29.4347 45.9299C31.4597 45.0429 34.3367 45.3409 35.3046 42.9399C35.6046 42.1959 35.7646 41.4299 35.7646 41.0099C35.7646 40.6439 36.0656 40.3469 36.4376 40.3469Z" fill="#FAFA19"/>
<path fill-rule="evenodd" clip-rule="evenodd" d="M15.9299 3.95493L14.4479 9.09493L5.63791 6.18893L3.26791 7.23193C2.77491 9.41793 2.08391 14.8319 3.26791 19.0019C4.74891 24.2179 9.26591 27.7939 10.9679 28.6129C12.3309 29.2689 13.4609 29.7799 13.8559 29.9539C14.1029 30.6739 14.7299 32.4119 15.2629 33.6039C15.6877 34.5449 16.1572 35.4649 16.6699 36.3609C16.4229 36.6089 16.0769 37.3739 16.6699 38.4469C16.8619 38.7949 17.0949 39.1639 17.3399 39.5529C18.0379 40.6599 18.8389 41.9299 19.1129 43.3629C19.4089 44.9129 19.2359 46.9389 19.1129 47.7589C17.8789 47.7089 14.9669 47.7139 13.1899 48.1309C11.4129 48.5479 10.4749 49.6459 10.2279 50.1429L9.04291 52.9729C9.63591 54.4629 12.3899 57.8159 18.6689 59.3059C24.9469 60.7959 28.8369 59.9259 29.9969 59.3059C30.2679 58.1879 30.6479 55.6559 29.9969 54.4639C29.3449 53.2719 26.1719 50.6889 24.6659 49.5469C25.1599 48.4289 26.5319 46.0159 28.0719 45.2999C28.9719 44.8819 29.9379 44.5939 30.8249 44.3299C31.8329 44.0299 32.7379 43.7599 33.3289 43.3639C34.2169 42.7679 34.5869 42.1719 34.6609 41.9479C35.2289 41.6999 36.6459 40.9799 37.7709 40.0859C38.8969 39.1919 39.2269 38.9189 39.6959 38.4459C41.5959 38.5209 45.2049 38.1639 47.0999 37.0309C52.0599 34.0689 53.6459 31.3829 56.2069 26.2289L50.3569 22.9509L52.4309 16.5439C50.6299 14.0609 45.3079 7.91793 36.9569 4.69993C28.6049 1.48193 19.2859 2.61493 15.9289 3.95593L15.9299 3.95493ZM8.89391 11.9999L13.2629 13.1179L12.3739 22.2059C11.4119 21.7099 9.36791 19.9559 8.89391 16.9169C8.42091 13.8769 8.69691 12.3729 8.89391 11.9999Z" fill="white"/>
<path fill-rule="evenodd" clip-rule="evenodd" d="M16.3154 3.83491C15.8124 4.27691 15.0314 6.64091 14.9314 8.02491C14.8584 9.04191 14.8694 9.08791 15.2544 9.33791C15.6364 9.58691 16.7944 9.85491 17.1544 9.58491C17.1544 9.58491 17.3214 8.54091 17.9564 6.53591C18.5744 4.58291 18.6124 4.15091 18.1984 3.73991C17.8104 3.35391 16.7824 3.42391 16.3154 3.83491ZM4.33737 6.42391C3.70037 6.72991 3.24537 7.57991 2.89237 9.11791C2.49037 10.8659 2.53237 15.9279 2.96537 17.8979C3.36437 19.7149 4.33737 21.8159 5.35237 23.1439C7.38237 25.8009 8.42037 26.9319 10.9694 28.6039C13.2084 30.0719 14.9194 29.0959 15.3304 28.6039C15.7114 28.1479 17.1304 28.6429 15.7844 27.8859C14.7264 27.2909 12.8594 26.2209 11.1694 24.5459C7.99936 21.4059 7.39337 20.3519 6.46737 16.3459C5.98737 14.2709 5.99237 10.7619 6.47937 8.21191C6.81637 6.44191 6.82237 6.31891 6.58737 5.96191C6.29737 5.52191 5.04337 6.08291 4.33737 6.42391ZM15.0464 12.7619C14.8442 13.011 14.6019 13.2246 14.3294 13.3939C13.5314 13.8439 12.7884 15.9489 12.4834 18.6269C12.0624 22.3169 14.9534 27.4319 14.9314 21.0039C14.9234 18.4279 15.0964 17.4619 15.3314 16.2079C15.8444 15.2789 17.0524 13.9849 17.0644 12.8139C17.0724 12.0169 15.5624 12.0939 15.0464 12.7619ZM43.5994 34.5059C47.7954 33.4649 50.0694 31.1259 51.8504 27.3499C50.8984 26.6929 49.9924 26.3169 48.8774 25.7269C46.9224 29.4089 45.9054 31.0869 43.5994 34.5059ZM14.5644 31.6829C15.0234 34.3409 17.6044 35.3159 16.1564 37.0239C15.9434 37.2749 15.7844 37.6489 15.7844 37.8979C15.7844 38.1459 17.0244 38.8939 17.5844 39.9649C18.6914 42.0839 19.0544 43.4379 19.0584 45.3509C19.0614 46.3609 18.6224 48.5059 20.4784 48.5059C21.1184 48.5059 22.5754 47.5959 22.8754 46.4039C23.2904 44.7509 23.3574 43.9389 23.1814 42.7139C22.9264 40.9459 22.3574 39.9299 20.7974 38.4579C19.5634 37.2959 18.5174 36.9109 18.5174 36.3819L18.1294 34.7679C17.5674 34.0109 17.3984 33.6879 17.0644 32.7339C16.7964 31.9689 16.5664 31.9479 16.7204 30.9639C16.8744 29.9819 17.0704 29.5679 16.9154 29.3839C15.7624 28.0049 14.3954 30.7029 14.5644 31.6839V31.6829ZM9.48237 51.9899C8.17437 55.1229 20.5344 59.5069 21.8734 59.7369C25.9384 60.4369 28.7284 60.0449 29.3284 59.7369C30.2724 59.2529 30.3924 58.1689 29.6214 57.0729C27.0614 53.4279 21.9324 51.3139 17.5684 50.6619C15.0404 50.2839 10.1464 50.3989 9.48237 51.9899Z" fill="black"/>
<path fill-rule="evenodd" clip-rule="evenodd" d="M12.1347 6.8349C13.4197 7.2859 14.1807 7.4539 14.1807 7.4539C14.1807 7.4539 14.7527 3.9009 15.1457 3.3809C23.1477 -2.2451 48.3257 4.1209 53.5997 15.8939L53.6097 15.9399C53.6647 16.2099 53.7997 16.8739 53.5997 17.6699C53.3917 18.4999 52.2817 21.9169 52.2817 21.9169C52.2817 21.9169 56.1637 23.9639 57.6377 24.9719C57.9917 25.2149 58.0137 25.7729 57.8577 26.3649C57.5557 27.5039 55.1417 31.7099 53.3107 33.7369C50.0277 37.3709 44.6447 39.8229 39.7547 39.7009C38.6557 40.8119 37.8497 41.5849 35.8477 42.1599C35.7547 42.1599 35.6397 42.3429 35.5927 42.5669C35.4757 43.1229 34.9957 43.8729 34.5807 44.1469C34.3927 44.2719 33.3697 44.5729 32.3077 44.8169C30.1977 45.3009 29.5117 45.6009 27.9237 46.7339C26.6267 47.6589 25.6967 48.8239 26.2557 48.8239C26.3307 48.8239 26.9957 49.2309 27.7337 49.7299C29.5017 50.9249 30.9087 52.3759 31.6117 53.7259L32.1657 54.7929L32.0657 56.5099C31.9357 58.7519 31.8037 59.2169 31.1377 59.7719C30.1347 60.6069 28.2787 60.9989 25.3127 60.9999C22.1427 61.0009 19.0257 60.1809 15.3497 58.3799C13.2577 57.3539 12.1737 56.6069 10.6047 55.1109C9.27767 53.8469 8.98467 53.3599 8.93867 52.3559C8.90767 51.6509 8.99567 51.3699 9.70267 49.9319C10.1427 49.0369 10.6367 48.1879 10.8027 48.0449C11.3127 47.6039 13.1057 46.7649 14.1047 46.5019C14.7807 46.3229 15.6407 46.2519 17.0717 46.2529L19.0867 46.2559V46.1779C19.0867 45.3119 19.0867 44.4449 18.8687 43.5999C18.5117 42.2139 17.2887 39.9339 16.2207 38.6639C15.3267 37.6009 15.2527 37.4609 15.3187 36.9609C15.3587 36.6609 15.5407 36.2129 15.7227 35.9639L16.0527 35.5109L15.5207 34.4859C15.1155 33.6728 14.7439 32.8434 14.4067 31.9999C14.0867 31.1949 13.7397 30.4899 13.6357 30.4339C13.5307 30.3779 12.9377 30.0939 12.3167 29.8029C9.10867 28.2979 4.54867 23.0369 3.47567 19.6019C2.80567 17.4609 2.62567 15.9839 2.61467 12.5449C2.60367 9.3349 2.81167 7.5269 3.31367 6.4739C3.50867 6.0649 5.44867 5.0049 6.01467 4.9969C6.47167 4.9909 9.31067 5.8439 12.1347 6.8359V6.8349ZM9.24467 7.8249C10.8227 8.3469 16.1177 10.3989 16.2837 10.5549C16.3777 10.6429 16.1437 11.9469 16.0377 11.9229C15.9817 11.9099 15.7537 11.9899 15.5297 12.0989C15.1547 12.2829 14.8867 12.2189 12.1167 11.2869C10.3167 10.6809 9.05767 10.3299 8.97867 10.4099C8.90567 10.4839 8.76967 11.3099 8.67767 12.2459C8.23967 16.6749 9.25467 19.8859 12.0197 22.8139C12.7127 23.5489 14.7227 25.1559 15.1457 25.3139C15.3007 25.3709 15.4127 25.6669 15.4777 26.1909C15.5317 26.6259 15.6117 27.1809 15.6557 27.4259C15.7347 27.8559 15.7107 27.8779 14.8717 28.1459C14.3347 28.3169 13.4687 28.1039 12.5037 27.6659C10.6717 26.8349 6.38367 22.0469 5.27767 19.2069C4.74067 17.8289 4.60867 16.9489 4.49867 14.0149C4.41867 11.8829 4.44867 11.1149 4.66267 9.7649L4.92267 8.1149L5.74167 7.6849C6.19167 7.4499 6.74567 7.2469 6.97467 7.2349C7.20267 7.2229 8.22467 7.4889 9.24467 7.8249ZM11.8597 13.6069L12.9647 13.9319L12.8747 14.5919C12.8267 14.9549 12.7147 16.0249 12.6277 16.9709C12.5407 17.9159 12.4207 19.0889 12.3587 19.5779L12.2487 20.4659L11.6487 19.2069C10.9007 17.6349 10.4457 15.9469 10.3357 14.3339C10.2587 13.1969 10.2727 13.0959 10.5027 13.1849C10.6417 13.2389 11.2527 13.4289 11.8597 13.6069ZM19.4197 48.6069C22.6137 49.1719 26.1117 50.7899 28.4167 52.7679C29.1967 53.4369 29.6237 54.2619 29.8647 55.5629L29.9707 56.1329L29.2537 55.5329C28.3337 54.7629 27.0117 53.3569 25.5507 52.7679C24.0277 52.1539 22.9137 52.1149 22.9137 52.1149C22.8867 52.1429 23.1977 52.8049 23.7487 53.0229C24.9237 53.4879 26.6287 54.5879 27.7317 55.5899C28.6317 56.4079 29.6347 57.6429 29.6347 57.9329C29.6347 58.5859 24.5627 58.8999 22.2357 58.3909C18.2887 57.5269 13.8817 55.4139 11.5917 53.2849L10.8357 52.5829L11.1877 51.6429C11.6337 50.4549 12.6777 49.2579 13.5657 48.9149C15.0347 48.3479 17.2857 48.2299 19.4197 48.6069ZM42.5387 36.9169C46.9337 33.1749 49.4977 28.9249 51.1827 24.4079C52.2467 25.0009 52.9977 25.3979 53.5557 25.6919C54.1137 25.9869 54.4787 26.1799 54.7717 26.3649C54.1127 30.0169 48.1787 36.4029 42.5387 36.9169ZM32.0667 42.5669C32.0667 42.5669 25.3127 43.0649 24.4437 47.7289C23.3457 47.0629 22.4337 46.8189 21.3677 46.6189C21.3677 46.6189 22.2367 41.9539 18.4107 37.9139C19.4207 36.4009 22.9057 37.2899 25.7627 38.1779C28.6197 39.0669 33.0147 41.5099 32.0667 42.5669ZM51.1897 16.4299L50.8147 17.9159C50.0147 21.1559 47.9747 25.5459 46.5017 28.0899C44.5017 31.5419 39.8077 37.1879 36.8217 39.4249L36.7167 39.5049C35.6527 40.3019 35.2197 40.5649 34.9327 40.5349C34.7787 40.5179 34.3727 40.1699 34.2617 40.0499C33.3217 39.1749 31.8467 38.1559 29.9457 37.2339C26.7787 35.6979 24.0757 34.5779 20.5917 34.4299L18.0777 34.5679L17.7657 34.0349C17.3657 33.3479 16.2277 30.5699 16.2277 30.5699C16.2277 30.3739 16.6817 29.9609 17.1587 29.9609C18.0577 29.9609 18.0087 28.6579 17.8587 28.1269C17.7397 27.7069 17.6357 27.0369 17.5447 26.4489C17.4997 26.1599 17.4577 25.8919 17.4187 25.6839C17.0897 23.9139 16.7487 23.3499 15.5367 22.7579L15.2937 22.6399C14.6127 22.3119 14.4987 22.2579 14.4137 21.6859C14.2737 20.7409 14.7507 15.8739 15.0017 15.0219L15.0077 14.9989C15.0627 14.8089 15.1427 14.5359 15.5367 14.5359C16.1587 14.5359 17.3527 14.2239 17.6387 13.8759C17.9547 13.4909 18.5177 11.1589 18.5177 10.4979C18.5177 9.4279 18.3537 9.0779 17.3027 8.5809C16.9693 8.42366 16.6319 8.27528 16.2907 8.1359C16.5017 7.1759 16.9707 4.9399 16.9707 4.9399C26.2007 0.4229 47.2097 8.6159 51.1897 16.4299Z" fill="#323239"/>
</svg>
