<svg width="69" height="69" viewBox="0 0 69 69" fill="none" xmlns="http://www.w3.org/2000/svg">
<path d="M25.7979 5.0079C26.9939 4.4499 28.1899 5.3849 28.8479 6.3309C29.5759 7.3779 29.8739 8.6459 30.1759 9.8669C30.5069 11.2059 30.8249 12.6649 31.4209 13.9169C31.5829 14.2569 31.5479 14.3769 31.5559 14.7169C31.5669 15.1989 32.0259 15.4949 32.4749 15.4329C32.9319 15.4069 33.3749 15.3199 33.7809 15.2279C35.5689 14.8229 37.3639 14.4539 39.1449 14.0159C40.164 13.7589 41.1875 13.5192 42.2149 13.2969C43.2179 13.0859 44.2269 13.0179 45.3049 12.9479C48.5709 12.7379 51.7989 12.1319 54.9869 11.4039C55.4409 11.2999 55.9409 11.4769 56.3919 11.5569C57.8019 11.8069 58.9319 12.5399 59.7129 13.7599C60.5329 15.0409 60.4909 15.6909 61.0529 17.3759C61.9279 20.0019 62.1349 22.7789 62.7669 25.4639C63.4949 28.5589 64.1199 31.8289 65.3229 34.7679C66.2349 36.9989 66.8169 39.4049 67.2529 41.8059C67.5019 43.1739 67.5619 44.2889 67.2589 45.6529C67.1919 45.9559 66.8759 46.4139 66.3389 46.9419C65.8604 47.4019 65.3453 47.8222 64.7989 48.1989C63.6759 48.9759 62.4969 50.0779 61.8799 51.3119C61.8298 51.3993 61.7981 51.496 61.7867 51.5961C61.7754 51.6962 61.7846 51.7976 61.8137 51.894C61.8429 51.9904 61.8915 52.0798 61.9564 52.1568C62.0214 52.2338 62.1014 52.2967 62.1915 52.3417C62.2816 52.3867 62.38 52.4128 62.4805 52.4185C62.5811 52.4241 62.6818 52.4092 62.7764 52.3746C62.871 52.3399 62.9575 52.2864 63.0307 52.2171C63.1038 52.1479 63.1621 52.0644 63.2019 51.9719C63.3879 51.6019 63.7799 51.1059 64.2659 50.6069C65.2179 49.6309 66.4029 48.9499 67.3749 47.9969C67.9289 47.4519 68.5339 46.7329 68.7019 45.9739C69.0469 44.4219 68.9909 43.0969 68.7079 41.5409C68.2629 39.0919 67.6579 36.5739 66.6909 34.2079C66.0829 32.7229 65.6509 31.1479 65.3309 29.5479C65.1559 28.6679 64.9179 27.8049 64.6809 26.9409C64.5113 26.3385 64.353 25.7331 64.2059 25.1249C63.8739 23.7139 63.6799 22.4129 63.4449 21.0629C63.1319 19.2699 62.6119 17.5629 62.1319 15.8149C61.8819 14.9009 61.6439 14.0349 60.9579 12.9629C60.3099 11.9499 59.2259 10.8619 58.1379 10.3329C57.3419 9.9469 55.4909 9.7719 54.6579 9.9629C51.9589 10.5789 50.1059 10.9189 47.3639 11.2849C45.5499 11.5269 43.7069 11.4719 41.9099 11.8499C40.8609 12.0699 39.8179 12.3279 38.7899 12.5799C37.4399 12.9129 36.1179 13.2379 34.7939 13.4829C34.1969 13.5929 33.6139 13.7679 33.0159 13.8769C32.8669 13.4749 32.6449 13.1049 32.5009 12.7009C32.1449 11.7049 31.8869 10.6259 31.6339 9.6009C31.3129 8.3009 30.9599 6.7779 30.0619 5.4869C29.5649 4.7729 28.8699 4.0969 28.0379 3.7049C27.1879 3.3029 26.1839 3.1959 25.1729 3.6679C24.4739 3.9939 23.7739 4.3229 23.1369 4.7619C22.6149 5.1199 22.3039 5.6729 22.0969 6.1359C21.9099 6.5529 21.7769 6.9899 21.6059 7.4129C21.5631 7.50395 21.5393 7.60277 21.536 7.70331C21.5327 7.80385 21.55 7.904 21.5867 7.99766C21.6234 8.09131 21.6789 8.17649 21.7496 8.248C21.8204 8.3195 21.905 8.37583 21.9982 8.41354C22.0915 8.45126 22.1915 8.46956 22.292 8.46733C22.3926 8.4651 22.4917 8.4424 22.5832 8.40059C22.6747 8.35879 22.7567 8.29877 22.8242 8.22421C22.8917 8.14964 22.9433 8.06209 22.9759 7.9669C23.2399 7.3169 23.3679 6.3969 23.9749 5.9799C24.5229 5.6029 25.1179 5.3249 25.7829 5.0149L25.7979 5.0079Z" fill="#00FAFA"/>
<path d="M27.7259 6.4299L31.5059 16.0399C38.5439 14.9369 53.0259 12.6369 54.6639 12.2589C56.7119 11.7859 58.7599 12.5739 59.3909 14.7789C60.0209 16.9849 65.2189 38.0939 65.8489 39.9839C66.4789 41.8739 66.7949 43.1349 66.6369 44.2379C66.4799 45.3409 62.3839 50.2239 60.6509 51.0119C58.9179 51.7999 52.3009 54.0049 44.2669 55.8949C36.2329 57.7849 18.2739 62.3549 15.9109 62.9849C13.5479 63.6149 11.1849 63.4569 10.2399 61.8819C9.29487 60.3059 8.03387 56.8409 4.88387 44.7109C1.73287 32.5799 1.10287 29.9019 1.41787 28.7999C1.73287 27.6969 4.41087 21.5529 5.82787 21.0799C6.96287 20.7019 20.0589 18.1919 26.4659 16.9849L23.6299 9.4219C23.6829 8.7389 24.0709 7.1849 25.2059 6.4289C26.3399 5.6729 27.3579 6.1139 27.7259 6.4289V6.4299Z" fill="white"/>
<path fill-rule="evenodd" clip-rule="evenodd" d="M23.9022 8.42311C23.0252 9.05111 23.0162 9.35411 23.8312 10.9531C24.2182 11.7141 24.9812 13.2931 25.5252 14.4631L26.6232 17.0781H28.8592C28.7752 16.5071 25.8182 9.12811 25.4592 8.59311C25.0172 7.93711 24.6392 7.89511 23.9022 8.42311ZM1.89219 27.3031C1.25619 29.7421 1.20319 30.2001 1.40519 31.5191C1.50919 32.1951 1.70219 33.0481 1.83519 33.4131C1.96919 33.7781 2.25019 34.8921 2.46019 35.8881C3.73219 41.9201 4.98919 46.4451 7.40319 53.6901C8.16819 55.9861 8.87719 58.1831 8.97719 58.5731C9.32519 59.9201 10.2172 61.4981 11.0092 62.1661C12.5422 63.4581 13.1232 63.6611 14.0762 63.2351C14.3492 63.1131 14.9972 62.9771 15.5172 62.9321C25.2262 61.0941 46.0662 55.5801 57.8152 51.9441C59.6242 51.5311 60.0672 51.3001 62.4512 49.5271C64.2752 48.1701 66.4802 45.0251 66.4802 45.0251L65.9802 43.2921C65.9802 43.2921 65.3772 44.9961 63.0142 45.6551C62.1912 45.8851 60.7892 46.2651 59.7062 46.5981C58.6222 46.9311 57.1692 47.3231 56.4762 47.4681C54.1562 47.9531 42.3002 51.1621 41.0022 51.6551C40.5752 51.8181 39.0102 52.2621 35.2092 53.2981C34.1692 53.5811 31.1922 54.4291 28.5932 55.1831C25.9932 55.9361 22.9802 56.7501 21.8972 56.9911C20.8142 57.2321 19.4092 57.5851 18.7742 57.7751C16.4812 58.4631 15.0842 58.4851 13.8442 57.8521C13.2182 57.5321 11.9962 54.4571 10.8712 50.3681C10.4668 48.8959 10.0545 47.4259 9.63419 45.9581C8.37019 41.6001 7.24419 37.3121 6.44919 33.8401C5.94185 31.7017 5.37261 29.5785 4.74219 27.4731C4.51319 26.7341 4.23819 24.8611 4.88419 22.0251C4.88419 22.0251 2.12919 26.3891 1.89119 27.3031H1.89219ZM43.0762 23.7481C42.2632 23.9431 40.9342 24.7501 40.5022 25.3111C40.2772 25.6041 39.8322 26.1521 39.5142 26.5291C38.7702 27.4111 38.5042 28.5501 38.7442 29.8391C38.9592 31.0071 39.4822 31.8791 40.5602 32.8631C42.2842 34.4391 44.1982 34.7151 46.1572 33.6701C46.6972 33.3821 47.3272 32.9051 47.5552 32.6101C47.7832 32.3151 48.2602 31.7261 48.6152 31.3011C48.9692 30.8771 49.3412 30.2561 49.4412 29.9221C49.6962 29.0721 49.6682 27.7471 49.3752 26.7611C48.7242 24.5661 45.7002 23.1211 43.0752 23.7481H43.0762ZM46.0662 25.7701C47.1092 26.3491 47.4262 26.8221 47.5282 27.9561C47.6692 29.5101 46.9382 30.5881 45.4622 31.0011C44.4952 31.2711 43.7412 31.0981 43.0072 30.4341C41.8312 29.3721 41.3712 27.6141 41.9682 26.4641C42.5582 25.3251 44.6312 24.9741 46.0662 25.7701ZM23.7882 26.2791C23.6582 26.3631 23.2852 26.4331 22.9592 26.4341C22.1972 26.4371 19.8052 26.9701 18.7062 27.3811C17.5562 27.8111 17.1002 28.3171 17.1002 29.1611C17.1002 29.6691 17.0102 29.8991 16.7072 30.1591C16.3652 30.4531 16.3192 30.6091 16.3512 31.3741C16.3712 31.8561 16.5232 32.6841 16.6882 33.2141C16.9022 33.9031 16.9352 34.1911 16.8042 34.2291C14.7502 34.8301 14.7462 34.8331 14.3272 35.6521C14.1072 36.0851 13.7052 36.6581 13.4372 36.9251C12.7192 37.6371 12.5912 38.2891 12.8612 39.8551C13.1542 41.5471 13.6712 43.2971 13.9822 43.6471C14.1762 43.8651 14.4782 43.9221 15.4242 43.9171C16.5652 43.9131 18.6942 43.6951 19.2142 43.5301C19.4132 43.4671 19.5282 43.7781 19.8142 45.1431C20.3082 47.5081 20.6692 48.1801 21.6342 48.5321C22.3692 48.8001 22.4362 48.7991 23.7602 48.4851C25.7802 48.0071 27.5682 47.3891 27.9032 47.0541C28.0832 46.8731 28.2012 46.5291 28.2052 46.1671C28.2102 45.6771 28.2962 45.5231 28.7172 45.2601C29.0552 45.0471 29.2922 44.7241 29.4332 44.2821C29.6192 43.6951 29.6052 43.4751 29.3152 42.3271C29.1352 41.6151 29.0052 41.0221 29.0272 41.0071C29.0472 40.9941 29.4522 40.8471 29.9252 40.6801C30.5472 40.4621 30.8872 40.2281 31.1502 39.8371C31.3502 39.5401 31.7252 39.1941 31.9822 39.0691C32.7062 38.7191 32.8782 37.8741 32.5542 36.2671C32.3012 35.0091 31.3942 32.0671 31.1362 31.6641C30.8462 31.2111 30.2612 31.1571 29.0182 31.4681C28.4502 31.612 27.8798 31.746 27.3072 31.8701C26.7492 31.9801 26.8682 32.2361 25.9882 29.0361C25.5732 27.5241 25.1752 26.7011 24.7002 26.3681C24.2942 26.0831 24.1172 26.0661 23.7882 26.2781V26.2791ZM24.1582 30.9261C24.4682 32.1391 24.7432 33.3371 24.7682 33.5891C24.7942 33.8631 24.9772 34.1691 25.2262 34.3531L25.6402 34.6611L27.7102 34.1481C28.8472 33.8661 29.8002 33.6631 29.8262 33.6981C29.9282 33.8321 30.9002 37.0191 30.8512 37.0541C30.8212 37.0751 30.4792 37.1811 30.0892 37.2901C27.1262 38.1201 26.7522 38.2821 26.5242 38.8271C26.3262 39.3011 26.3442 39.5311 26.7042 41.1271C26.9222 42.1011 27.1392 43.0171 27.1842 43.1631C27.2522 43.3761 27.0182 43.5031 25.9612 43.8251C25.2422 44.0431 24.3582 44.2701 23.9962 44.3271L23.3372 44.4321L23.1772 43.8221C23.0902 43.4881 22.8702 42.6121 22.6882 41.8751C22.2512 40.0991 22.0782 39.6911 21.6352 39.4011C21.2972 39.1801 21.1372 39.1881 19.8092 39.4961C19.0082 39.6821 18.0692 39.9321 17.7232 40.0521L17.0942 40.2701L16.6742 38.6701C16.4442 37.7901 16.2322 36.9681 16.2022 36.8431C16.1602 36.6701 16.6092 36.5201 18.0752 36.2131C20.6382 35.6771 20.7432 35.5761 20.4972 33.8911C20.3972 33.2101 20.1172 31.8931 19.8742 30.9641L19.4322 29.2761L19.9952 29.1831C20.6568 29.0661 21.3172 28.9421 21.9762 28.8111C22.7562 28.6581 23.4382 28.5751 23.4932 28.6271C23.5472 28.6781 23.8462 29.7131 24.1572 30.9261H24.1582ZM52.4852 30.2161C51.2352 30.5121 49.4192 32.1061 49.0732 33.2121C49.0052 33.4281 48.7832 33.8041 48.5782 34.0491C48.0882 34.6361 47.9902 35.0791 48.0882 36.2971C48.2432 38.2261 49.5752 40.1801 51.1312 40.7621C52.2272 41.1721 53.0932 41.1721 54.4212 40.7621C55.1912 40.5251 55.6142 40.2831 56.0082 39.8571C56.3042 39.5371 56.9002 38.8961 57.3332 38.4321C58.3022 37.3941 58.7602 36.2551 58.7602 34.8861C58.7602 33.5561 58.4002 32.5811 57.5602 31.6481C56.5542 30.5281 55.5202 30.0551 54.1222 30.0761C53.5102 30.0851 52.7742 30.1481 52.4852 30.2161ZM55.0652 32.2461C56.3072 32.8101 56.8292 33.8311 56.6782 35.4011C56.5512 36.7241 55.5182 37.6401 54.0342 37.7411C52.7922 37.8251 51.8932 37.3361 51.3842 36.3011C50.8252 35.1651 50.7782 34.4741 51.1982 33.6051C51.8822 32.1921 53.6102 31.5851 55.0652 32.2461Z" fill="black"/>
<path fill-rule="evenodd" clip-rule="evenodd" d="M24.9699 5.51208C23.1559 6.38608 22.1149 8.59408 22.7269 10.2651C22.8539 10.6121 23.1879 11.5341 23.4689 12.3131C23.7499 13.0931 24.2249 14.3231 24.5239 15.0471C24.8239 15.7701 25.0219 16.4081 24.9659 16.4641C24.8589 16.5721 22.5829 16.9941 16.3159 18.0671C14.2439 18.4221 11.4789 18.9511 10.1729 19.2421C8.86694 19.5331 7.37294 19.8481 6.85294 19.9421C5.48994 20.1901 4.31894 20.8111 3.75994 21.5821C3.50094 21.9401 2.61994 23.5661 1.80194 25.1951C0.710941 27.3701 0.314941 28.3171 0.314941 28.7531C0.314941 31.1311 1.78094 38.1911 3.36294 43.4261C3.82294 44.9531 5.16094 49.9931 5.84894 52.8001C6.47294 55.3451 8.10494 60.1671 8.68894 61.1901C9.38594 62.4121 10.3319 63.5491 10.8919 63.8391C11.1639 63.9791 12.0669 64.2321 12.8999 64.4001L14.4139 64.7061L15.9109 64.3171C16.7339 64.1031 18.8959 63.5351 20.7159 63.0551C23.8919 62.2171 26.4159 61.5591 31.3489 60.2821C32.6049 59.9571 34.3069 59.5071 35.1299 59.2821C35.9529 59.0581 38.5399 58.4021 40.8799 57.8241C43.2199 57.2471 46.0899 56.4391 47.2599 56.0291C49.4999 55.2441 54.7729 53.6131 58.1869 52.6501C59.3009 52.3361 60.5509 51.9071 60.9639 51.6981C61.4029 51.4751 62.5569 50.4911 63.7429 49.3281C64.8579 48.2351 65.9209 47.2361 66.1059 47.1101C66.2909 46.9841 66.6679 46.4561 66.9449 45.9371C67.3499 45.1771 67.4779 44.6941 67.6049 43.4611L67.7609 41.9301L66.2369 36.6521C65.3999 33.7501 64.3019 29.6021 63.7969 27.4371C63.2929 25.2711 62.8069 23.3081 62.7189 23.0771C62.6299 22.8451 62.3799 21.8171 62.1629 20.7921C61.6699 18.4591 60.1389 13.9601 59.5449 13.0971C59.0439 12.3681 58.3069 11.7671 57.5329 11.4551C56.8369 11.1751 54.8609 11.3061 52.1429 11.8151C50.9739 12.0331 48.6349 12.3971 46.9449 12.6231C45.2549 12.8501 42.4549 13.3131 40.7219 13.6531C38.9899 13.9921 36.5149 14.4511 35.2239 14.6731C33.9329 14.8951 32.7139 15.1171 32.5169 15.1661C32.1989 15.2461 32.1309 15.1681 31.9269 14.4941C31.8009 14.0741 31.3279 12.7741 30.8769 11.6041C30.4269 10.4341 29.7769 8.69808 29.4349 7.74408C28.6219 5.48408 28.3869 5.24508 26.8979 5.18108C25.9499 5.14108 25.6229 5.19608 24.9689 5.51108L24.9699 5.51208ZM27.0069 7.53208C27.2779 7.65608 27.5069 7.98608 27.7229 8.56008C27.8969 9.02508 28.2279 9.77608 28.4579 10.2301C28.8299 10.9611 30.1279 14.4601 30.3479 15.3181C30.4229 15.6161 30.3079 15.6711 29.0559 15.9341C28.1889 16.1161 27.5999 16.1701 27.4589 16.0801C27.3359 16.0011 27.0699 15.5471 26.8689 15.0701C26.6669 14.5941 26.2049 13.5301 25.8419 12.7071C25.488 11.9056 25.1366 11.1029 24.7879 10.2991L24.3949 9.38808L24.7429 8.66908C25.0869 7.95808 25.8209 7.35308 26.3399 7.35208C26.4879 7.35208 26.7879 7.43208 27.0069 7.53208ZM57.2699 13.5631C57.6919 13.8401 58.6759 15.6871 59.2099 17.2051C59.3949 17.7291 59.7539 19.1831 60.0079 20.4351C61.1209 25.9241 62.7059 32.2961 64.4339 38.2281C65.9609 43.4731 65.9619 43.2531 64.4039 45.5601C63.0409 47.5811 61.9559 48.8321 60.8249 49.6861C59.9929 50.3151 58.1019 51.1241 56.8699 51.3781C55.8779 51.5831 50.3959 53.1931 47.4179 54.1541C45.8149 54.6711 42.7669 55.5181 40.6439 56.0371C33.2549 57.8411 31.5759 58.2391 30.0099 58.5541C29.1439 58.7281 26.9819 59.2571 25.2049 59.7281C21.6619 60.6691 16.0579 62.0481 14.5709 62.3461C11.7859 62.9031 10.7609 61.8261 9.00894 56.5021C8.56794 55.1591 7.81494 52.5721 7.33694 50.7521C6.85994 48.9321 6.06694 46.0621 5.57494 44.3721C5.08294 42.6821 4.51394 40.6261 4.30994 39.8031C4.10594 38.9801 3.72594 37.5271 3.46494 36.5731C3.11974 35.2675 2.803 33.9545 2.51494 32.6351C1.94994 30.0231 1.98494 29.4081 2.79794 27.6731C3.10294 27.0231 3.68894 25.7251 4.10094 24.7891C4.51294 23.8531 4.97894 22.9441 5.13694 22.7701C5.60494 22.2531 7.54894 21.4251 8.90094 21.1661C9.59394 21.0331 11.1529 20.7701 12.3659 20.5791C13.5789 20.3891 15.8119 20.0261 17.3289 19.7721C18.8449 19.5181 21.3969 19.1011 22.9989 18.8451C29.3279 17.8371 30.0279 17.7131 30.6389 17.4951C31.6969 17.1141 41.4609 15.3951 47.9689 14.4431C50.3949 14.0881 53.1239 13.6611 54.0339 13.4941C55.8539 13.1601 56.6809 13.1781 57.2699 13.5641V13.5631Z" fill="#323239"/>
</svg>
