<svg width="60" height="60" viewBox="0 0 60 60" fill="none" xmlns="http://www.w3.org/2000/svg">
<path d="M34.2683 1.65397C33.3523 1.36597 32.2873 1.28397 30.9683 1.43297C30.8432 1.44895 30.7169 1.41512 30.6167 1.33878C30.5164 1.26244 30.4501 1.14973 30.4322 1.02497C30.4258 0.963115 30.4316 0.900589 30.4495 0.841015C30.4673 0.781441 30.4968 0.726003 30.5363 0.677914C30.5757 0.629825 30.6243 0.590042 30.6792 0.560869C30.7342 0.531697 30.7943 0.513716 30.8563 0.507968C32.2763 0.346968 33.4873 0.428968 34.5673 0.767968C35.6503 1.10797 36.5693 1.69497 37.4173 2.50197C38.8673 3.87897 39.7803 5.71497 40.1313 7.59697C40.5613 9.90797 39.6113 12.001 39.6113 14.281C39.6113 15.091 40.4342 15.602 40.9113 16.164C41.7432 17.144 40.7813 19.641 40.4443 20.666C40.0893 21.746 39.5172 23.201 39.4612 24.344V24.357C39.6852 24.787 40.2183 25.027 40.5613 25.357C41.7983 26.55 42.1883 28.291 42.1883 29.826C42.1883 30.953 41.6973 31.786 40.8443 32.476C40.4243 32.815 39.9863 33.118 39.5123 33.376C39.5113 33.84 39.5082 34.842 39.5022 35.975C39.4976 37.4281 39.48 38.8812 39.4493 40.334C39.4013 42.071 39.6683 44.148 39.9233 45.879C39.9983 46.392 40.0792 46.864 40.1412 47.207C40.2122 47.597 40.8022 47.507 41.1562 47.625C41.7432 47.821 42.1572 48.232 42.3362 48.825C42.5852 49.657 42.8533 50.482 43.0483 51.329C43.3333 52.574 44.5923 52.759 45.3933 53.531C45.8473 53.969 46.0182 54.796 46.2602 55.376C46.8562 56.808 44.5792 57.242 43.6632 57.561C40.9072 58.521 38.1503 58.601 35.2543 58.561C35.1919 58.5612 35.1301 58.5492 35.0725 58.5256C35.0148 58.5019 34.9624 58.4671 34.9181 58.4232C34.8739 58.3793 34.8388 58.327 34.8148 58.2695C34.7908 58.212 34.7784 58.1503 34.7783 58.088C34.7837 57.9624 34.8382 57.844 34.93 57.7582C35.0218 57.6724 35.1436 57.626 35.2693 57.629C38.0183 57.667 40.6572 57.62 43.2742 56.706C43.5272 56.617 45.5283 56.121 45.3623 55.723C45.1453 55.199 44.9443 54.658 44.6753 54.158C44.1292 53.684 43.3913 53.482 42.8303 53.02C42.3553 52.63 42.2372 52.114 42.1072 51.543L42.0992 51.509C41.9113 50.689 41.6493 49.889 41.4073 49.084C41.2363 48.516 40.6392 48.424 40.1272 48.355C39.4692 48.267 39.3142 48.057 39.1892 47.367C39.1263 47.017 39.0433 46.536 38.9663 46.01C38.7043 44.233 38.4333 42.094 38.4833 40.309C38.5113 39.328 38.5263 37.529 38.5353 35.969C38.5423 34.802 38.5452 33.773 38.5452 33.331C38.5452 33.089 38.5533 32.822 38.7973 32.694C39.8933 31.974 41.2213 31.331 41.2213 29.826C41.2213 28.405 40.8552 26.958 39.8772 26.016C39.4482 25.602 38.8813 25.322 38.5973 24.774C38.1313 23.875 39.2063 21.348 39.5063 20.434C39.7093 19.816 40.6882 17.373 40.1632 16.754C39.5182 15.994 38.6443 15.384 38.6443 14.281C38.6443 12.068 39.5963 9.99697 39.1803 7.76197C38.8603 6.04497 38.0292 4.39097 36.7392 3.16497C35.9752 2.43897 35.1813 1.93997 34.2683 1.65397Z" fill="#FF73E5"/>
<path fill-rule="evenodd" clip-rule="evenodd" d="M37.5576 14.7549C38.4516 10.6619 39.0206 2.98187 31.6686 1.79787C25.4846 0.801868 22.9236 8.95187 22.0376 13.6109L20.2996 15.4769L18.8796 24.1799C18.3006 24.4399 17.1426 25.3929 17.1426 27.1339C17.1426 28.8739 17.7746 30.0349 18.0896 30.3979C17.8266 32.1589 17.4586 36.1179 18.0896 37.8579C18.4096 38.7379 19.1926 39.4149 20.2426 39.9399L19.9966 49.2119L17.8016 49.8279L16.7036 53.2019L15.6056 53.5639L14.1426 56.1039C16.5116 56.6739 22.8266 58.1549 29.1426 58.2799C35.4586 58.4039 41.7746 56.2589 44.1426 55.3779L43.7766 54.0249L41.9476 52.4759L40.8496 49.9369C40.4836 49.2119 39.8916 48.6109 39.3866 48.4869C38.8486 48.3539 38.6306 48.8289 38.3266 47.8949L38.1426 47.3409C37.7636 46.2209 37.3526 36.8229 37.1956 32.2629C37.1956 32.2629 37.9856 32.2319 38.6156 32.1079C39.4056 31.9519 40.6686 30.3979 40.6686 28.5379C40.1186 26.3609 38.6246 25.2729 37.1956 25.2729C38.0216 21.8039 38.9106 18.8699 39.0206 18.3809C39.3366 16.9819 38.5046 15.1209 37.5576 14.7539V14.7549ZM34.6296 32.8909C33.6626 36.7449 33.4076 40.1719 33.1656 40.4109C32.5346 41.0319 29.3226 40.9739 25.8486 40.5079C24.2406 40.2919 22.4706 39.9119 21.0926 39.4199C21.4986 41.3089 23.2586 44.8529 27.2466 46.0979C32.4266 47.7149 33.7896 46.3629 34.2636 45.2229L34.6296 32.8909Z" fill="white"/>
<path fill-rule="evenodd" clip-rule="evenodd" d="M22.3796 13.262C21.0696 14.376 20.3726 14.48 20.5036 15.772C20.5176 15.909 20.9936 17.187 20.9256 17.481C20.6686 18.585 20.4626 19.701 20.2006 20.804C20.0046 21.627 20.1636 22.005 20.7056 22.005C21.4836 22.005 21.3566 20.884 22.1416 20.884C23.7176 21.411 23.0416 23.594 21.9766 23.793C21.9766 23.793 21.6536 23.823 21.2866 23.793C20.5946 23.737 20.9726 21.973 20.1946 22.5C19.9286 22.68 17.3636 26.298 17.3566 26.95C17.3366 28.94 18.6966 29.902 19.5306 27.16C19.8456 26.856 20.0766 27.16 20.0766 27.16C20.1606 27.461 20.2816 27.687 20.4106 27.785C20.9706 28.211 21.2846 28.526 21.3996 29.091C21.5696 29.932 21.4346 30.77 20.9856 31.573C20.6426 32.185 19.9336 31.946 19.4916 31.46C19.4916 31.46 18.3736 34.275 18.3536 34.872C18.3106 36.156 18.7736 37.155 18.7246 38.476C18.7106 38.851 18.7366 38.92 18.9946 39.177C19.3476 39.53 19.8426 40.325 20.1946 40.392C20.2096 43.516 20.1946 45.887 19.8506 50.002C19.8506 50.002 18.0096 49.877 17.7716 50.09C17.3836 50.438 17.0456 52.631 17.0456 52.631L18.3256 53.111C17.5656 53.36 16.1906 53.413 15.5426 53.795C15.0606 54.079 14.1426 55.898 14.1426 55.898C16.0426 57.798 20.2276 57.395 22.7656 57.798C24.1886 58.023 29.0126 58.286 29.0126 58.286C29.1786 57.333 29.5266 56.836 29.6826 55.876C31.2066 55.876 38.0386 55.468 38.0386 53.226C38.0386 53.073 37.8756 52.996 37.5546 52.996C34.6756 53.879 32.1796 53.879 30.2596 54.062V52.286C33.0956 52.274 36.6426 51.857 39.8566 50.357C40.1866 50.211 40.8996 49.392 40.0666 48.864C39.5936 48.564 38.8806 49.066 38.4096 49.18C37.7396 49.343 35.7856 49.928 34.9376 50.002C34.9376 44.572 34.9476 38.505 35.2416 33.062C35.9466 33.166 36.7686 33.307 37.4626 33.118C37.7376 33.043 37.9636 32.548 38.0166 31.905L38.0566 31.415C37.4266 30.96 36.1766 31.053 36.1746 28.903C36.1716 26.753 38.3756 26.95 38.3756 26.95C39.5946 25.879 36.9686 24.968 36.1776 24.968C34.4866 24.968 32.8256 26.587 32.3216 28.05C31.8276 29.482 31.6806 31.641 32.8156 32.791C32.9116 32.889 32.9216 33.221 32.8696 34.764C32.8696 36.339 32.9316 38.124 32.6786 38.894C32.4256 39.664 31.9546 39.892 31.4576 39.651C28.9676 38.441 26.1346 38.162 23.4076 38.134C22.1676 38.121 21.1146 38.089 21.0696 38.061C20.5876 37.774 21.3806 37.51 21.5446 37.492C22.2896 37.412 25.0096 37.406 27.6076 37.481C30.8376 37.574 28.6046 36.526 26.5296 36.215C25.0746 35.997 22.8426 35.951 21.6456 36.148C21.1786 36.225 20.7876 36.254 20.7476 36.215C20.6746 36.145 20.9856 33.649 20.9856 33.649C20.9856 33.649 23.1906 33.899 24.1956 31.46C25.1676 29.464 24.0456 27.113 21.9306 26.482C21.4406 26.335 21.3996 26.305 21.3996 26.096C21.3996 25.808 21.5146 25.721 21.9776 25.665C22.9326 25.547 24.2136 24.144 24.5466 23.283C25.0446 21.995 24.4346 20.363 22.9616 20.162C22.6816 20.123 22.4126 20.055 22.3656 20.009C22.0266 19.681 22.6156 17.933 22.6886 17.469C22.7536 17.058 23.3916 17.105 23.7176 17.049C26.8966 16.508 29.9396 17.339 33.0256 17.877C34.3086 18.101 35.9976 18.563 37.1696 19.119C37.5606 19.305 39.8216 19.849 39.3696 18.699C38.8406 17.353 33.8026 16.355 32.5746 16.077C29.7546 15.44 26.7846 14.786 23.9176 15.214C23.4736 15.322 22.9616 15.411 22.9616 15.411C22.9616 15.411 23.3376 14.955 23.9176 14.376C24.6946 13.6 24.7256 13.593 27.3176 13.583C30.3546 13.572 33.2106 14.253 36.0226 15.411C36.4926 15.605 36.9606 15.781 37.4246 15.999C37.9866 16.263 38.4996 16.479 38.5646 16.479C38.7496 16.479 38.8896 16.259 38.8346 16.049C38.7906 15.879 37.9966 14.987 37.4626 14.574C35.6606 13.181 33.3186 12.389 30.8306 12.061C25.1876 11.319 27.3186 3.42798 27.3186 3.42798C23.6896 5.42598 23.9656 12.138 22.3786 13.262H22.3796ZM22.3796 40.983C22.2356 40.983 22.2176 41.018 22.2636 41.203C22.7996 43.382 25.5456 44.684 27.5476 45.22C28.7566 45.544 32.2796 46.084 33.2896 45.117C33.7586 44.67 33.4736 42.465 33.4976 41.778C30.4076 42.612 25.4126 42.141 22.3786 40.984L22.3796 40.983Z" fill="black"/>
<path fill-rule="evenodd" clip-rule="evenodd" d="M25.5137 3.14986C23.6037 5.11386 21.9287 9.32286 21.9287 12.1739C21.9287 12.6069 21.9027 12.6439 20.8647 13.7379C19.2337 15.3179 19.6487 16.9489 19.6487 16.9489C19.6487 16.9489 19.6947 17.2169 19.5067 18.2039C19.4017 18.7519 19.3217 19.6769 19.2337 20.0529C19.0873 20.6791 18.9473 21.3068 18.8137 21.9359C18.5487 23.1939 18.2927 23.4209 18.0047 23.7239C16.8477 24.9409 16.5487 25.8639 16.5497 27.0299C16.5507 27.5749 17.0217 28.3599 17.2737 28.7079C17.4207 28.9119 17.4517 29.0819 17.4717 29.8169C17.4857 30.2939 17.5577 30.9469 17.6337 31.2669C17.7597 31.8009 17.7607 31.9249 17.6477 32.7769C17.5027 33.8679 17.4897 35.4969 17.6127 37.1369C17.7387 38.8149 17.7677 38.8639 19.2257 39.8969L19.9077 40.3799L19.8547 41.4749C19.8247 42.0769 19.7427 43.0579 19.6727 43.6549C19.5467 44.7189 19.5507 45.4349 19.6957 47.8109L19.7457 48.6339H19.4977C19.0257 48.6339 17.9537 49.1059 17.5197 49.5059C17.1537 49.8429 17.0977 49.9409 16.9497 50.5219C16.6857 51.5519 16.5347 52.3249 16.5617 52.5139C16.5837 52.6719 16.5407 52.6939 16.1357 52.7379C15.3887 52.8169 15.2257 52.9549 14.8187 53.8549C14.6687 54.1849 14.3917 54.7149 14.2027 55.0289C13.7317 55.8139 13.6167 56.2539 13.7907 56.6129C14.0277 57.1019 14.5727 57.2529 17.7277 57.7109C18.3557 57.8029 19.1817 57.9449 19.5627 58.0279C19.9447 58.1109 20.6597 58.2519 21.1527 58.3429C23.8027 58.8299 23.9117 58.8449 26.4957 59.0809C28.3537 59.2499 32.3737 59.0549 33.8487 58.7249C34.1327 58.6609 34.5677 58.5859 34.8137 58.5579C35.0607 58.5289 35.5007 58.4549 35.7927 58.3939L37.3427 58.0679C37.9027 57.9509 38.5997 57.7859 38.8917 57.7009C39.8487 57.4239 41.8617 56.9209 42.2357 56.8669C42.8657 56.7739 43.9757 56.4549 44.4007 56.2419C44.9477 55.9689 45.0447 55.7719 44.9837 55.0559C44.9137 54.2239 44.7217 53.9099 43.7447 53.0179C42.8077 52.1619 42.6197 51.8639 42.1677 50.5219C41.8127 49.4689 41.4877 48.8309 41.1767 48.5719C40.9437 48.3789 40.1557 48.0119 39.6867 47.8789C38.9937 47.6819 39.0067 47.7159 38.6927 45.4219C38.6287 44.9579 38.5547 43.7649 38.5267 42.7719C38.4997 41.7769 38.4387 40.6209 38.3927 40.2019C38.3457 39.7819 38.2977 37.9459 38.2857 36.1209L38.2627 32.8039C40.5317 32.7559 41.3197 30.8059 41.5327 28.7419C41.7367 26.7639 39.8927 25.4359 38.2387 24.7589C38.2387 24.0079 39.0147 21.1249 39.3477 19.9149C40.5007 19.7019 40.0687 17.0229 39.7557 16.2349C39.4985 15.5623 39.1119 14.9466 38.6177 14.4229C39.3667 9.81886 39.8307 4.08086 35.0247 1.64386C32.2847 0.253856 27.9197 0.674856 25.5147 3.14986H25.5137ZM32.5227 3.65086C35.6387 4.84586 36.3777 5.45086 36.8227 8.92086C37.0657 10.8139 36.6627 12.5509 36.5267 14.4229C36.4837 15.0229 37.0647 15.3969 37.2627 15.5239C37.7387 15.8319 38.2707 16.9389 38.2397 18.3439C37.5197 18.6239 37.1747 19.1199 37.0647 19.9149C36.8627 21.3809 35.7267 24.3509 36.2277 25.8559C36.4857 26.1719 37.2857 26.5339 38.0287 26.8489C39.9057 27.2569 40.2097 29.5069 39.0147 30.7489C38.6197 31.1599 37.3977 31.3129 36.9247 31.4529C36.7197 31.5129 36.4767 31.6329 36.3847 31.7179C36.2197 31.8699 36.2167 31.9379 36.2277 35.6729C36.2327 37.8259 36.1747 40.0459 36.2277 40.5469C36.2777 41.0329 36.3547 42.3699 36.3997 43.5189C36.4587 45.0419 36.5337 45.9219 36.6777 46.7709C36.8877 48.0149 36.9367 48.1479 37.3787 48.6879C37.6887 49.0679 38.7057 49.1119 39.3497 49.3009C39.9597 49.4779 40.2597 49.6519 40.3897 49.9009C40.4517 50.0209 40.6397 50.5359 40.8057 51.0439C40.9717 51.5519 41.1347 52.0039 41.1667 52.0479C41.1997 52.0919 41.3297 52.3739 41.4567 52.6749C41.6207 53.0639 41.7657 53.2739 41.9597 53.4039C42.5097 53.7719 43.4587 54.7359 43.4587 54.9259C43.4587 55.0949 43.3857 55.1259 42.6227 55.2959C41.3547 55.5769 39.9127 55.9239 39.0957 56.1449C37.5787 56.5549 35.3037 57.0439 34.2427 57.1869C33.9287 57.2339 33.616 57.2886 33.3047 57.3509C31.1577 57.7779 26.3917 57.7779 23.8447 57.3489C22.2737 57.0859 20.7977 56.8139 20.1347 56.6669C19.3547 56.4949 17.7337 56.2249 16.9947 56.1449C16.6473 56.1026 16.302 56.0448 15.9597 55.9719L15.4147 55.8519L15.6897 55.3919C15.8397 55.1379 15.9877 54.8349 16.0177 54.7169C16.1157 54.3339 16.3847 54.1409 17.0487 53.9789C17.5857 53.8469 17.7227 53.8389 18.0147 53.9259C18.6797 54.1219 21.6907 54.6519 22.1567 54.6559C22.6087 54.6579 23.2007 54.5109 23.3247 54.3659C23.4747 54.1869 23.2897 53.8859 22.9137 53.6969C22.6037 53.5419 21.6607 53.2799 20.4397 53.0119C18.9897 52.6929 18.7617 52.6379 18.3977 52.5199C18.1067 52.4259 18.0167 52.3599 18.0427 52.2599C18.0627 52.1879 18.1627 51.7729 18.2667 51.3389C18.4737 50.4689 18.5807 50.3389 18.9667 50.4909C19.5687 50.7279 22.6877 51.2829 23.4207 51.2839C24.0057 51.2839 24.3977 51.1489 24.4897 50.9139C24.5517 50.7539 24.5777 50.7819 24.1627 50.5759C23.8097 50.4009 23.3567 50.2779 21.8877 49.9579C20.4797 49.6519 20.6157 49.7119 20.7497 49.4579C20.8147 49.3359 20.8667 49.2059 20.8677 49.1679C20.8677 49.1319 20.9417 49.0089 21.0307 48.8969C21.2257 48.6529 21.2387 48.2409 21.1007 46.6169C21.0287 45.7719 21.0297 45.2369 21.1057 44.3239C21.4397 40.2989 21.4447 40.0989 21.2097 39.6679C21.1097 39.4839 20.5747 38.9959 20.4727 38.9959C20.3727 38.9959 19.4817 38.1569 19.4817 38.0639C19.4817 38.0179 19.8577 37.8239 20.3177 37.6329C20.7777 37.4419 21.2977 37.1749 21.4727 37.0399L21.7917 36.7939L21.5537 36.6939C21.2257 36.5559 20.5817 36.5639 20.0497 36.7109C19.8622 36.7647 19.6727 36.8114 19.4817 36.8509C19.3017 36.8759 19.2167 34.3649 19.3717 33.5909C19.4317 33.2889 19.4817 32.9099 19.4827 32.7469C19.4847 32.4149 19.5407 32.3009 19.7427 32.2279C19.8177 32.2009 19.9407 32.0879 20.0147 31.9759C20.1447 31.7809 20.1377 31.7499 19.8417 31.1479C19.4347 30.3219 19.3797 29.6419 19.6487 28.7819C19.7507 28.4589 19.9227 28.0609 20.0327 27.8969C20.1927 27.6569 20.2207 27.5409 20.1777 27.2889C20.1257 26.9829 20.1307 26.9749 20.4557 26.8489C20.7447 26.7379 20.7857 26.6889 20.7857 26.4689C20.7857 26.2589 20.7407 26.1989 20.5037 26.1019C20.0307 25.9069 19.8207 25.9519 19.4407 26.3269C19.1767 26.5869 19.0807 26.7539 19.0357 27.0299C18.9637 27.4719 18.6597 28.1459 18.5297 28.1499C18.4777 28.1529 18.4107 28.0369 18.3817 27.8929C18.3471 27.7287 18.3006 27.5673 18.2427 27.4099C18.1137 27.0809 18.3597 26.3139 18.8137 25.6289C19.0207 25.3169 19.2097 25.0439 19.2337 25.0219C19.2577 24.9999 19.4887 24.7579 19.7467 24.4859C20.1147 24.0959 20.2167 23.9329 20.2217 23.7229C20.2277 23.4379 20.5257 22.7129 20.5357 22.9559C20.5457 23.2079 20.9327 23.8689 21.1957 24.0879C21.5157 24.3519 21.7957 24.3559 22.0537 24.1019C22.3057 23.8539 22.3057 23.7089 22.0507 23.2379C21.8007 22.7769 21.7957 22.5189 22.0207 21.8699C22.1827 21.4049 22.6837 20.6049 22.8137 20.6049C22.9047 20.6049 23.3957 20.1389 23.3957 20.0529C23.3957 19.8899 23.1317 19.7209 22.8807 19.7229C21.5087 19.7229 20.8257 21.2469 20.8257 21.2469C21.0217 20.0509 21.5087 18.2039 21.5977 17.0779C21.6257 17.0329 21.9977 16.9409 22.4227 16.8739C23.5207 16.6999 24.4327 16.4509 24.7087 16.2499C24.8387 16.1539 24.9457 16.0509 24.9457 16.0199C24.9457 15.9889 24.8197 15.8539 24.6657 15.7199C24.1457 15.2709 23.3517 15.2179 21.7357 15.5239C21.5227 15.5639 21.5097 15.5539 21.5887 15.4089C21.7577 15.0979 22.5487 14.3789 22.8687 14.2459C23.0467 14.1719 23.7157 13.9459 24.3557 13.7439C25.9937 13.2269 26.1527 12.4289 24.3557 12.4289C24.3527 11.2539 24.6807 10.2729 25.0127 9.17086C26.0507 5.72986 27.5157 2.64786 32.5227 3.65086Z" fill="#323239"/>
</svg>
