<svg width="70" height="70" viewBox="0 0 70 70" fill="none" xmlns="http://www.w3.org/2000/svg">
<path fill-rule="evenodd" clip-rule="evenodd" d="M39.05 6.664C38.237 6.572 37.218 6.498 36.451 6.85C36.3255 6.9077 36.1897 6.93996 36.0516 6.94493C35.9135 6.94989 35.7757 6.92747 35.6463 6.87894C35.5169 6.83041 35.3984 6.75674 35.2976 6.66218C35.1968 6.56763 35.1157 6.45405 35.059 6.328C34.9434 6.07283 34.9333 5.78232 35.0309 5.51972C35.1285 5.25713 35.3258 5.04373 35.58 4.926C36.705 4.409 38.082 4.426 39.286 4.562C40.365 4.683 41.401 4.715 42.571 4.802C46.815 5.12 50.898 6.707 53.539 10.214C55.063 12.237 56.763 14.806 57.169 17.323C57.559 19.738 57.611 21.958 57.635 24.379C57.641 24.923 57.648 25.518 57.602 26.135C59.353 27.505 58.575 31.096 58.356 33.034C58.258 33.9 58.116 34.761 57.985 35.623C58.975 37.077 59.57 38.726 60.143 40.379C60.717 42.036 61.447 44.142 61.451 46.111C61.456 48.534 61.445 51.155 60.511 53.433C60.161 54.287 59.615 55.25 58.803 55.807C58.471 56.034 57.856 56.328 57.413 56.532C57.105 56.674 56.911 56.724 56.753 57.02C56.547 57.402 56.238 57.93 55.815 58.537C53.789 61.447 50.767 63.751 47.482 65.04C46.551 65.405 45.452 65.604 43.892 65.782C43.618 65.8039 43.3462 65.7183 43.1341 65.5433C42.9221 65.3683 42.7865 65.1177 42.7561 64.8444C42.7257 64.5712 42.8028 64.2968 42.9712 64.0795C43.1395 63.8621 43.3859 63.7189 43.658 63.68C45.189 63.506 46.058 63.33 46.722 63.07C49.599 61.94 52.317 59.876 54.095 57.325C54.465 56.794 54.732 56.335 54.905 56.015C54.988 55.859 55.07 55.701 55.143 55.539C55.374 54.997 56.053 54.833 56.541 54.609C57.029 54.384 57.466 54.166 57.621 54.059C57.916 53.857 58.265 53.367 58.568 52.628C59.393 50.618 59.354 48.251 59.35 46.118C59.346 44.386 58.626 42.448 57.985 40.575C57.465 39.055 56.911 37.695 56.039 36.523C55.773 36.165 55.835 35.773 55.899 35.365C56.028 34.519 56.169 33.675 56.265 32.825C56.449 31.191 56.723 29.409 56.294 27.793C55.838 27.463 55.34 27.237 55.444 26.544C55.546 25.862 55.541 25.17 55.534 24.376C55.509 22.062 55.467 19.973 55.094 17.666C54.746 15.508 53.174 13.231 51.864 11.493C49.589 8.473 46.054 7.184 42.412 6.912C41.365 6.834 40.171 6.79 39.05 6.664Z" fill="#0CE51C"/>
<path fill-rule="evenodd" clip-rule="evenodd" d="M51.0469 14.4921C50.4409 13.3711 48.3859 10.8131 45.0129 9.55406C40.7959 7.98006 36.3199 7.47506 34.4979 7.82006C32.6739 8.16406 27.1239 11.1101 23.9659 15.9731C21.4399 19.8641 20.3149 21.9711 20.0679 22.5391L18.9379 22.8231C18.0409 23.8671 16.0859 26.6781 15.4299 29.5711C14.7739 32.4631 14.5659 36.0211 14.5429 37.4371C12.9099 38.1231 9.46988 40.0521 8.77888 42.2821C8.62188 42.7891 8.44888 43.3211 8.27088 43.8661C7.47088 46.3221 6.58088 49.0511 6.70088 50.9761C6.84688 53.3271 11.1319 59.1661 13.9929 60.5881C16.8529 62.0101 20.9809 63.1621 23.3319 63.0151C25.2119 62.8971 26.8999 61.8151 27.5089 61.2881C28.4559 62.2181 30.9459 64.1751 33.3189 64.5531C36.2879 65.0251 39.6769 65.4071 41.4119 64.6411C42.7989 64.0281 44.7439 63.5061 45.5419 63.3211C47.1359 62.5851 50.5979 60.6211 51.6979 58.6581C52.7979 56.6941 53.4469 55.3301 53.6329 54.8931C54.3459 55.0651 55.9809 55.0201 56.8149 53.4661C57.8579 51.5231 58.3189 46.2181 57.4479 44.1971C56.7509 42.5801 54.4539 38.2741 53.3919 36.3231C53.8019 35.1331 54.5679 32.4721 54.3649 31.3501C54.1619 30.2281 53.7809 28.8121 53.6169 28.2441C53.6999 26.6971 53.7429 22.9841 53.2529 20.5111C52.7629 18.0381 51.5779 15.4691 51.0469 14.4931V14.4921ZM26.7329 37.7121L22.7429 36.5751C23.3729 34.6311 24.8009 30.4891 25.4659 29.4651C26.0564 28.5624 26.6608 27.669 27.2789 26.7851L27.4159 25.5641C28.2579 23.7821 30.7439 19.9231 33.9519 18.7461C37.1609 17.5701 40.3039 16.8061 41.4749 16.5731C41.9269 16.6231 42.9259 17.3401 43.3079 19.8011C43.6899 22.2611 44.0029 25.0071 44.1119 26.0731C43.7939 26.8611 43.0429 28.7271 42.5829 29.8831C42.1229 31.0411 41.4439 32.2731 41.1629 32.7451C39.8219 32.4571 36.5129 32.0841 34.0049 32.9001C31.4949 33.7161 28.1119 36.4481 26.7329 37.7121Z" fill="white"/>
<path fill-rule="evenodd" clip-rule="evenodd" d="M33.5527 7.43292C28.8177 8.53492 23.6527 15.1659 20.4847 21.2589C20.4587 21.4909 21.2717 23.9389 21.5287 24.2089C21.8957 24.5959 22.0517 24.6339 22.5417 24.4609C22.7907 24.3729 23.3717 23.9209 24.0497 22.8469C25.3887 20.7269 27.1897 19.3069 29.7417 17.1249C33.8017 13.6549 38.9497 11.4099 42.3437 17.2729C43.3047 18.9329 43.8447 21.2329 44.1187 23.9229C44.4537 27.2179 42.3857 28.0959 41.9607 31.8659C41.9607 31.8659 40.5917 31.7929 39.8687 31.6449C37.5177 31.1649 34.0767 31.8679 31.8317 33.2869C29.5117 34.7529 27.2317 37.0939 25.7037 39.5769L24.9737 40.7639C24.2887 40.5299 23.9837 40.2189 22.8087 40.0859C21.7887 39.9709 20.5687 39.6519 18.8797 40.7179C17.8947 41.3389 16.9377 42.7319 16.5837 44.2919C16.4147 45.0419 17.0347 45.1189 17.5417 44.3999C18.0237 43.7179 18.9607 43.6629 19.8427 43.3709C20.7457 43.0729 23.5807 43.7929 23.5807 43.7929C23.5807 43.7929 22.6167 47.2149 22.4087 48.9609C22.2217 50.5209 22.2277 50.6729 22.5047 51.6929C23.0877 53.8329 23.7747 55.9099 24.1147 56.5649C24.5127 57.3279 24.4897 57.3619 23.3957 57.5849C22.2207 57.8239 20.4167 57.4229 17.9667 56.3799C16.9487 55.9459 16.5607 55.6769 15.1767 54.4469C14.1467 53.5309 13.2387 52.5749 12.6487 51.7829C11.8547 50.7169 11.6517 50.3179 11.1757 48.8799C10.5717 47.0579 10.3377 45.5749 10.3957 43.9199C10.4257 42.9969 10.4997 42.6769 10.9227 41.6209C11.9137 39.1509 11.0227 38.7679 8.55774 42.7349C7.53774 44.3769 7.21875 49.2209 7.28975 51.1789C7.42675 54.9259 11.8897 59.3979 15.6327 61.3389C20.5727 63.9019 25.1937 63.0639 27.5877 61.0569C29.6257 62.9269 31.5737 63.5369 33.3597 64.2549C34.7407 64.8109 37.0877 65.1609 38.5697 65.0329C39.6057 64.9429 41.9537 62.8689 40.3997 62.5009C38.1997 61.9809 36.3727 61.1919 34.5447 58.1229C33.6417 56.6059 33.3497 55.8899 32.8927 54.0649C32.5987 52.8969 32.1967 51.3219 32.2887 50.5009L32.5717 47.9879C32.4517 47.9229 30.0187 47.8209 29.5777 47.8219C27.5177 47.8239 29.6677 43.7539 30.1637 42.6259C30.8037 41.1669 33.1087 39.6949 34.9517 38.0759C37.6457 35.7069 42.8527 35.1479 45.0767 32.2159C49.3187 25.3839 46.3867 13.3999 40.3087 9.09392C39.2027 8.31092 34.3897 7.23792 33.5537 7.43292H33.5527ZM18.6937 22.9699C18.1577 23.5659 17.8037 24.1669 17.7607 24.5499C17.7407 24.7349 17.5387 25.2649 17.3147 25.7279C16.4217 27.5709 15.0167 32.6499 14.7527 34.9849C14.6577 35.8299 14.6777 36.0679 14.8647 36.3179C15.2687 36.8609 16.1347 36.6939 16.4687 36.0099C16.5507 35.8419 16.9727 34.4239 17.4057 32.8599C18.2017 29.9819 19.5057 26.8379 20.7227 24.3799C21.1827 23.4519 19.9997 21.5129 18.6927 22.9699H18.6937Z" fill="black"/>
<path d="M41.214 49.974C41.568 48.26 42.604 46.878 43.969 46.3C44.669 46.004 44.906 45.968 45.486 46.075C46.824 46.323 48.038 47.774 48.086 49.185C48.118 50.144 47.788 51.655 47.364 52.487C46.607 53.976 45.439 54.621 43.828 54.442C43.105 54.362 42.945 54.288 42.358 53.76C41.19 52.709 40.868 51.644 41.214 49.974Z" fill="#323239"/>
<path fill-rule="evenodd" clip-rule="evenodd" d="M36.642 5.514C34.932 5.442 32.598 6.581 31.175 7.276L31.145 7.29C25.981 9.812 21.841 15.234 19.902 20.512C19.902 20.512 18.619 20.186 17.77 21.532C15.912 24.477 14.266 28.721 13.45 33.7L13.143 36.423C10.593 37.98 9.04996 39.62 7.76796 42.391C5.14496 48.063 4.73296 55.138 9.78296 59.098C13.712 62.178 20.133 66.285 26.943 63.417L27.49 62.997L28.45 63.635C29.654 64.435 31.432 65.32 32.616 65.708C34.188 66.224 36.854 66.302 38.624 66.236C40.214 66.176 41.905 65.364 42.65 64.893C46.446 64.722 50.43 63.313 53.313 58.617C53.855 57.735 54.419 56.636 54.419 56.636C55.188 56.722 57.175 55.194 57.589 54.619C58.461 53.409 58.861 51.856 59.215 48.786C59.72 44.302 57.886 39.68 55.482 36.079C55.86 35.183 55.932 34.454 56.012 33.657C56.059 33.193 56.108 32.707 56.22 32.151C56.892 28.823 55.417 19.879 54.352 16.77C52.658 11.825 49.232 8.616 45.292 7.088C43.479 6.385 39.088 5.618 36.642 5.514ZM46.607 10.663C51.254 13.485 52.176 18.029 52.651 23.296L47.738 21.462C47.721 19.966 47.582 18.783 47.458 18.095C46.735 15.414 43.474 10.611 42.734 11.476C42.41 11.856 42.627 12.074 43.051 12.5C43.718 13.168 45.601 16.704 45.993 19.832C45.993 19.832 46.116 20.57 46.178 21.648L44.418 22.451C44.096 17.138 40.743 12.571 35.403 12.889C33.701 13.129 32.536 13.479 31.22 14.567C29.863 15.687 29.5 16.144 29.672 16.513C29.937 17.078 30.322 16.95 31.76 15.818C33.286 14.618 34.238 14.361 35.703 14.22C37.083 14.086 39.924 15.18 40.024 15.679C40.047 15.793 39.919 15.839 39.656 15.809C38.35 15.662 35.281 16.661 33.468 17.825C31.488 19.095 28.548 22.052 27.495 23.834L26.975 24.713L24.723 24.368C23.485 24.179 22.423 23.963 22.423 23.963L21.437 21.946C21.437 21.946 23.531 17.584 24.911 15.82C27.471 12.547 31.185 9.579 33.947 8.598C36.203 7.796 38.823 8.326 41.129 8.792C43.027 9.176 44.935 9.648 46.607 10.662V10.663ZM44.43 24.228C44.302 27.002 43.507 30 42.012 32.828C41.82 32.981 41.257 33.312 40.762 33.563C39.688 34.107 37.412 35.759 35.446 37.423C34.278 38.411 33.81 38.928 32.795 40.353C31.262 42.505 30.727 43.421 30.089 44.984C29.478 46.484 29.491 46.783 30.185 47.06C31.033 47.4 31.46 47.09 32.081 45.692C33.106 43.382 35.012 40.902 36.848 39.495C37.838 38.735 39.88 37.705 41.202 37.295C42.054 37.032 43.702 36.893 44.662 37.005C46.709 37.242 48.976 38.191 50.453 39.428C53.283 41.797 54.961 45.418 54.945 49.131C54.937 50.836 54.889 51.735 54.608 53.029C54.524 53.269 54.592 53.401 54.863 53.431C56.435 53.609 56.485 48.156 56.452 47.432C56.325 44.641 55.064 40.92 52.756 37.695C51.868 36.453 51.983 36.131 52.226 35.621C52.769 33.709 53.012 29.788 52.816 25.684L47.686 23.45C47.5888 25.0469 47.3438 26.6314 46.954 28.183C46.429 30.52 45.974 31.243 44.202 31.995C44.202 31.995 45.478 28.271 45.984 25.538C46.115 24.828 46.179 24.104 46.202 23.419L44.43 24.228ZM41.452 18.381C43.776 22.663 43.175 26.195 41.155 30.074C38.31 29.754 35.637 30.028 33.056 31.389C30.908 32.521 29.032 34.109 27.33 35.823C26.367 35.599 26.3 35.577 25.362 35.26C26.032 32.473 27.232 30.622 28.699 28.362L28.701 28.358C28.891 28.066 29.084 27.768 29.281 27.459C29.463 27.175 29.387 26.542 29.33 26.065C29.304 25.848 29.281 25.663 29.289 25.558C29.409 23.909 32.904 20.445 35.605 19.058C37.549 18.06 39.622 17.626 40.703 17.722C41.039 17.752 41.175 17.872 41.452 18.381ZM20.114 24.411C20.444 25.399 20.997 25.854 22.837 26.061C24.554 26.255 26.159 26.212 26.347 26.681C25.018 28.545 23.467 31.8 22.861 34.191L22.781 34.518C22.704 34.85 22.657 35.054 22.531 35.18C22.335 35.38 21.947 35.39 20.947 35.416C20.76 35.421 20.552 35.426 20.32 35.434C18.699 35.484 17.316 35.7 16.439 36.036C16.151 36.146 15.859 36.231 15.79 36.223C15.655 36.208 15.83 35.012 16.355 32.387C16.708 30.612 17.101 29.25 17.684 27.772C18.237 26.369 19.545 23.257 19.629 23.144C19.807 23.164 19.946 23.913 20.113 24.412L20.114 24.411ZM39.21 32.713C39.087 32.791 38.435 33.192 37.762 33.603C37.088 34.013 35.732 35.005 34.747 35.807C32.028 38.02 30.566 39.924 29.248 42.967C28.175 45.444 27.912 46.953 28.426 47.683C28.852 48.288 30.689 48.843 31.36 48.569C31.6 48.471 31.621 48.54 31.605 49.387C31.549 52.282 31.785 53.871 32.617 56.186C33.436 58.463 33.957 59.339 35.129 60.413C36.801 61.943 38.291 63.132 39.688 63.51C38.818 64.026 36.926 63.947 35.986 63.542C31.714 61.705 28.699 55.784 28.012 51.353C27.899 50.623 27.779 49.866 27.745 49.673C27.707 49.461 27.585 49.311 27.434 49.294C26.728 49.214 26.674 52.412 27.34 54.847C27.915 56.953 28.899 59.7 30.476 61.431C30.976 61.979 31.365 62.445 31.341 62.466C31.253 62.546 29.497 61.303 28.826 60.778C26.451 58.92 25.036 56.386 24.162 52.428L23.867 51.092L24.225 47.97C24.571 44.956 24.601 44.806 25.088 43.666C26.565 40.213 28.648 37.577 31.58 35.456C33.3 34.209 34.728 33.446 36.028 33.078C37.056 32.786 38.735 32.5 39.166 32.544C39.399 32.568 39.405 32.589 39.21 32.714V32.713ZM48.775 40.569C53.211 43.423 54.208 49.029 52.743 53.769C52.14 55.724 51.403 57.112 50.218 58.531C46.098 63.463 39.944 63.751 35.954 58.644C33.934 56.056 32.919 53.51 33.417 49.094C34.088 41.646 42.812 36.024 48.775 40.569ZM25.843 37.992C25.895 38.034 25.616 38.571 25.223 39.184L24.51 40.3L23.84 40.178C23.262 40.072 23.119 40.098 22.783 40.371C22.266 40.792 22.315 41.091 22.975 41.531C23.276 41.731 23.546 41.926 23.575 41.963C23.604 41.999 23.536 42.264 23.425 42.551L23.223 43.071L22.546 42.8C21.466 42.367 20.33 42.397 19.031 42.894C18.431 43.124 17.943 43.28 17.947 43.241C17.951 43.201 18.22 42.781 18.544 42.307C19.152 41.417 19.219 41.01 18.766 40.959C17.739 40.843 16.35 43.063 16.108 45.205C15.693 48.889 18.518 53.142 21.902 53.928L22.792 54.134L23.114 55.213C23.546 56.658 24.441 58.349 25.547 59.805C26.047 60.465 26.456 61.018 26.454 61.035C26.452 61.053 26.179 61.189 25.847 61.337C24.357 62.001 22.573 62.092 20.267 61.621C15.092 60.564 9.80996 56.812 8.45696 51.333C8.11096 49.937 8.79296 46.295 9.91696 43.537C10.519 42.057 11.113 41.291 12.754 39.879C14.267 38.578 14.904 38.275 17.198 37.769C18.309 37.525 19.32 37.417 21.241 37.336C21.726 37.316 25.708 37.883 25.844 37.992H25.843ZM22.246 43.98L22.816 44.197L22.65 44.816C22.558 45.156 22.37 46.444 22.23 47.676C22.011 49.621 22.003 50.049 22.168 50.922C22.272 51.475 22.353 51.972 22.347 52.026C22.323 52.235 21.22 51.828 20.452 51.327C18.541 50.081 17.007 47.356 17.43 45.959C17.694 45.086 19.237 44.035 20.56 43.827C21.37 43.699 21.553 43.716 22.246 43.98Z" fill="#323239"/>
</svg>
