<svg width="24" height="24" viewBox="0 0 24 24" fill="currentColor" xmlns="http://www.w3.org/2000/svg" class="w-6 h-6 fill-white">
<path fill-rule="evenodd" clip-rule="evenodd" d="M12 15.3333C15.2133 15.3333 17.8182 12.7963 17.8182 9.66667C17.8182 6.53705 15.2133 4 12 4C8.78671 4 6.18182 6.53705 6.18182 9.66667C6.18182 12.7963 8.78671 15.3333 12 15.3333ZM12 13.2083C14.0083 13.2083 15.6364 11.6227 15.6364 9.66667C15.6364 7.71066 14.0083 6.125 12 6.125C9.99169 6.125 8.36364 7.71066 8.36364 9.66667C8.36364 11.6227 9.99169 13.2083 12 13.2083Z" fill="currentColor"/>
<path d="M12 13.2083H10.5455V15.3333C10.5455 15.6875 9.44408 16.2088 7.68842 16.3958C4.36364 16.75 4 18.875 4 21H5.81818V19.9375C5.81818 19.2292 6.18182 18.1667 8.36364 18.1667C10.1816 18.1667 11.2727 17.4583 12 16.75V13.2083Z" fill="currentColor"/>
<path d="M12 13.2083H13.4545V15.3333C13.4545 15.6875 14.5559 16.2088 16.3116 16.3958C19.6364 16.75 20 18.875 20 21H18.1818V19.9375C18.1818 19.2292 17.8182 18.1667 15.6364 18.1667C13.8184 18.1667 12.7273 17.4583 12 16.75V13.2083Z" fill="currentColor"/>
</svg>
