<svg width="24" height="24" viewBox="0 0 24 24" fill="none" xmlns="http://www.w3.org/2000/svg">
<path fill-rule="evenodd" clip-rule="evenodd" d="M15.3055 16.9033C14.13 17.7643 12.6813 18.2724 11.1144 18.2724C7.18522 18.2724 4 15.0774 4 11.1362C4 7.19499 7.18522 4 11.1144 4C15.0436 4 18.2288 7.19499 18.2288 11.1362C18.2288 12.7133 17.7187 14.1709 16.8551 15.3522L19.9996 18.428L18.4713 20L15.3055 16.9033ZM16.0406 11.1362C16.0406 13.8647 13.8354 16.0767 11.1152 16.0767C8.39505 16.0767 6.1899 13.8647 6.1899 11.1362C6.1899 8.40767 8.39505 6.19575 11.1152 6.19575C13.8354 6.19575 16.0406 8.40767 16.0406 11.1362Z" fill="#0E0E10"/>
</svg>
