<svg width="48" height="48" viewBox="0 0 48 48" fill="none" xmlns="http://www.w3.org/2000/svg">
<g clip-path="url(#clip0_73_856)">
<path d="M6.61719 3.85864H44.4676V28.7664L35.0945 39.442H6.61719V3.85864Z" fill="white"/>
<path fill-rule="evenodd" clip-rule="evenodd" d="M3.37613 0C1.51155 0 0 1.51155 0 3.37614V8.6256V26.2518V39.8779C0 42.087 1.79086 43.8779 4 43.8779H10.6913C11.5417 43.8779 12.37 44.1489 13.0559 44.6517L16.0819 46.8695C17.0226 47.5591 18.2779 47.6408 19.3001 47.0791L24.2258 44.3723C24.816 44.048 25.4786 43.8779 26.1521 43.8779H33.2185C34.2794 43.8779 35.2969 43.4564 36.0471 42.7062L46.8286 31.9238C47.5786 31.1736 48 30.1563 48 29.0955V4C48 1.79086 46.2091 0 44 0H3.37613ZM43.5002 26.846C43.5003 27.9072 43.0787 28.9249 42.3282 29.6751L37.1705 34.8311C36.4204 35.5809 35.4032 36.0022 34.3426 36.0022H23.9996H17.6242H11.4997C9.29059 36.0022 7.49973 34.2113 7.49973 32.0022V8.49929C7.49973 6.29015 9.29059 4.49929 11.4997 4.49929H39.499C41.708 4.49929 43.4989 6.28999 43.499 8.49903L43.5002 26.846Z" fill="#199AFC"/>
<path d="M26.2207 16.6637C28.0054 14.9132 28.0054 12.0313 26.2207 10.2808L32.6716 16.6637C34.4349 18.4356 34.4349 21.2962 32.6716 23.0681L26.2207 29.4724C24.4359 31.2442 21.5545 31.2442 19.7697 29.4724C17.985 27.7005 17.985 24.8399 19.7697 23.0681L26.2207 16.6637Z" fill="#199AFC"/>
<path d="M26.2207 16.6638L22.9952 19.8659L19.7697 16.6638C17.985 14.9133 17.985 12.0313 19.7697 10.2808C21.5545 8.50894 24.4359 8.50894 26.2207 10.2808C28.0054 12.0313 28.0054 14.9133 26.2207 16.6638Z" fill="#1D5682"/>
</g>
<defs>
<clipPath id="clip0_73_856">
<rect width="48" height="48" fill="white"/>
</clipPath>
</defs>
</svg>
